ISO-10303-21;
HEADER;
/* Generated by software containing ST-Developer
 * from STEP Tools, Inc. (www.steptools.com) 
 */

FILE_DESCRIPTION(
/* description */ ('',
'CAx-IF Rec.Pracs.---Representation and Presentation of Product Manufa
cturing Information (PMI)---4.0---2014-10-13'),
/* implementation_level */ '2;1');

FILE_NAME(
/* name */ '[updated] Medium IncuFridge 365P v11.step',
/* time_stamp */ '2025-03-28T01:46:08-04:00',
/* author */ (''),
/* organization */ (''),
/* preprocessor_version */ 'ST-DEVELOPER v20',
/* originating_system */ 'Autodesk Translation Framework v13.20.0.188',

/* authorisation */ '');

FILE_SCHEMA (('AP242_MANAGED_MODEL_BASED_3D_ENGINEERING_MIM_LF { 1 0 10303 442 1 1 4 }'));
ENDSEC;

DATA;
#10=MECHANICAL_DESIGN_GEOMETRIC_PRESENTATION_REPRESENTATION('',(#85,#86,
#87,#88,#89,#90,#91,#92,#93,#94,#95,#96,#97,#98,#99,#100,#101,#102,#103,
#104,#105,#106,#107,#108,#109),#1677);
#11=SHAPE_REPRESENTATION_RELATIONSHIP('SRR','None',#1684,#12);
#12=ADVANCED_BREP_SHAPE_REPRESENTATION('',(#110,#111,#112,#113,#114,#115,
#116,#117,#118,#119,#120,#121,#122,#123,#124,#125,#126,#127,#128,#129,#130,
#131,#132,#133,#134),#1676);
#13=CYLINDRICAL_SURFACE('',#981,1.99999999999999);
#14=CYLINDRICAL_SURFACE('',#986,2.00000000000003);
#15=CYLINDRICAL_SURFACE('',#991,1.99999999999999);
#16=CYLINDRICAL_SURFACE('',#996,1.99999999999999);
#17=CYLINDRICAL_SURFACE('',#1001,1.99999999999999);
#18=CYLINDRICAL_SURFACE('',#1006,2.00000000000003);
#19=CYLINDRICAL_SURFACE('',#1011,1.99999999999999);
#20=CYLINDRICAL_SURFACE('',#1016,2.00000000000003);
#21=CYLINDRICAL_SURFACE('',#1021,2.00000000000003);
#22=CYLINDRICAL_SURFACE('',#1026,1.99999999999999);
#23=CYLINDRICAL_SURFACE('',#1031,1.99999999999999);
#24=CYLINDRICAL_SURFACE('',#1036,1.99999999999999);
#25=CYLINDRICAL_SURFACE('',#1039,1.99999999999999);
#26=CYLINDRICAL_SURFACE('',#1044,2.00000000000003);
#27=CYLINDRICAL_SURFACE('',#1049,1.99999999999999);
#28=CYLINDRICAL_SURFACE('',#1054,1.99999999999999);
#29=CYLINDRICAL_SURFACE('',#1059,1.99999999999999);
#30=CYLINDRICAL_SURFACE('',#1064,1.99999999999999);
#31=CYLINDRICAL_SURFACE('',#1069,1.99999999999999);
#32=CYLINDRICAL_SURFACE('',#1074,1.99999999999999);
#33=CYLINDRICAL_SURFACE('',#1079,2.00000000000003);
#34=CYLINDRICAL_SURFACE('',#1084,1.99999999999999);
#35=CYLINDRICAL_SURFACE('',#1089,2.00000000000003);
#36=CYLINDRICAL_SURFACE('',#1094,2.00000000000003);
#37=CIRCLE('',#980,1.99999999999999);
#38=CIRCLE('',#982,1.99999999999999);
#39=CIRCLE('',#985,2.00000000000003);
#40=CIRCLE('',#987,2.00000000000003);
#41=CIRCLE('',#990,1.99999999999999);
#42=CIRCLE('',#992,1.99999999999999);
#43=CIRCLE('',#995,1.99999999999999);
#44=CIRCLE('',#997,1.99999999999999);
#45=CIRCLE('',#1000,1.99999999999999);
#46=CIRCLE('',#1002,1.99999999999999);
#47=CIRCLE('',#1005,2.00000000000003);
#48=CIRCLE('',#1007,2.00000000000003);
#49=CIRCLE('',#1010,1.99999999999999);
#50=CIRCLE('',#1012,1.99999999999999);
#51=CIRCLE('',#1015,2.00000000000003);
#52=CIRCLE('',#1017,2.00000000000003);
#53=CIRCLE('',#1020,2.00000000000003);
#54=CIRCLE('',#1022,2.00000000000003);
#55=CIRCLE('',#1025,1.99999999999999);
#56=CIRCLE('',#1027,1.99999999999999);
#57=CIRCLE('',#1030,1.99999999999999);
#58=CIRCLE('',#1032,1.99999999999999);
#59=CIRCLE('',#1035,1.99999999999999);
#60=CIRCLE('',#1037,1.99999999999999);
#61=CIRCLE('',#1040,1.99999999999999);
#62=CIRCLE('',#1041,1.99999999999999);
#63=CIRCLE('',#1045,2.00000000000003);
#64=CIRCLE('',#1046,2.00000000000003);
#65=CIRCLE('',#1050,1.99999999999999);
#66=CIRCLE('',#1051,1.99999999999999);
#67=CIRCLE('',#1055,1.99999999999999);
#68=CIRCLE('',#1056,1.99999999999999);
#69=CIRCLE('',#1060,1.99999999999999);
#70=CIRCLE('',#1061,1.99999999999999);
#71=CIRCLE('',#1065,1.99999999999999);
#72=CIRCLE('',#1066,1.99999999999999);
#73=CIRCLE('',#1070,1.99999999999999);
#74=CIRCLE('',#1071,1.99999999999999);
#75=CIRCLE('',#1075,1.99999999999999);
#76=CIRCLE('',#1076,1.99999999999999);
#77=CIRCLE('',#1080,2.00000000000003);
#78=CIRCLE('',#1081,2.00000000000003);
#79=CIRCLE('',#1085,1.99999999999999);
#80=CIRCLE('',#1086,1.99999999999999);
#81=CIRCLE('',#1090,2.00000000000003);
#82=CIRCLE('',#1091,2.00000000000003);
#83=CIRCLE('',#1095,2.00000000000003);
#84=CIRCLE('',#1096,2.00000000000003);
#85=STYLED_ITEM('',(#1693),#110);
#86=STYLED_ITEM('',(#1693),#111);
#87=STYLED_ITEM('',(#1693),#112);
#88=STYLED_ITEM('',(#1693),#113);
#89=STYLED_ITEM('',(#1693),#114);
#90=STYLED_ITEM('',(#1693),#115);
#91=STYLED_ITEM('',(#1693),#116);
#92=STYLED_ITEM('',(#1693),#117);
#93=STYLED_ITEM('',(#1693),#118);
#94=STYLED_ITEM('',(#1693),#119);
#95=STYLED_ITEM('',(#1693),#120);
#96=STYLED_ITEM('',(#1693),#121);
#97=STYLED_ITEM('',(#1693),#122);
#98=STYLED_ITEM('',(#1693),#123);
#99=STYLED_ITEM('',(#1693),#124);
#100=STYLED_ITEM('',(#1693),#125);
#101=STYLED_ITEM('',(#1693),#126);
#102=STYLED_ITEM('',(#1693),#127);
#103=STYLED_ITEM('',(#1693),#128);
#104=STYLED_ITEM('',(#1693),#129);
#105=STYLED_ITEM('',(#1693),#130);
#106=STYLED_ITEM('',(#1693),#131);
#107=STYLED_ITEM('',(#1693),#132);
#108=STYLED_ITEM('',(#1693),#133);
#109=STYLED_ITEM('',(#1693),#134);
#110=MANIFOLD_SOLID_BREP('IncuFridge Body',#929);
#111=MANIFOLD_SOLID_BREP('Body29',#930);
#112=MANIFOLD_SOLID_BREP('Body30',#931);
#113=MANIFOLD_SOLID_BREP('Body31',#932);
#114=MANIFOLD_SOLID_BREP('Body32',#933);
#115=MANIFOLD_SOLID_BREP('Body33',#934);
#116=MANIFOLD_SOLID_BREP('Body34',#935);
#117=MANIFOLD_SOLID_BREP('Body35',#936);
#118=MANIFOLD_SOLID_BREP('Body36',#937);
#119=MANIFOLD_SOLID_BREP('Body37',#938);
#120=MANIFOLD_SOLID_BREP('Body38',#939);
#121=MANIFOLD_SOLID_BREP('Body39',#940);
#122=MANIFOLD_SOLID_BREP('Body40',#941);
#123=MANIFOLD_SOLID_BREP('Body41',#942);
#124=MANIFOLD_SOLID_BREP('Body42',#943);
#125=MANIFOLD_SOLID_BREP('Body43',#944);
#126=MANIFOLD_SOLID_BREP('Body44',#945);
#127=MANIFOLD_SOLID_BREP('Body45',#946);
#128=MANIFOLD_SOLID_BREP('Body46',#947);
#129=MANIFOLD_SOLID_BREP('Body47',#948);
#130=MANIFOLD_SOLID_BREP('Body48',#949);
#131=MANIFOLD_SOLID_BREP('Body49',#950);
#132=MANIFOLD_SOLID_BREP('Body50',#951);
#133=MANIFOLD_SOLID_BREP('Body51',#952);
#134=MANIFOLD_SOLID_BREP('Body52',#953);
#135=FACE_OUTER_BOUND('',#219,.T.);
#136=FACE_OUTER_BOUND('',#220,.T.);
#137=FACE_OUTER_BOUND('',#221,.T.);
#138=FACE_OUTER_BOUND('',#222,.T.);
#139=FACE_OUTER_BOUND('',#223,.T.);
#140=FACE_OUTER_BOUND('',#224,.T.);
#141=FACE_OUTER_BOUND('',#225,.T.);
#142=FACE_OUTER_BOUND('',#226,.T.);
#143=FACE_OUTER_BOUND('',#227,.T.);
#144=FACE_OUTER_BOUND('',#228,.T.);
#145=FACE_OUTER_BOUND('',#229,.T.);
#146=FACE_OUTER_BOUND('',#230,.T.);
#147=FACE_OUTER_BOUND('',#231,.T.);
#148=FACE_OUTER_BOUND('',#232,.T.);
#149=FACE_OUTER_BOUND('',#233,.T.);
#150=FACE_OUTER_BOUND('',#234,.T.);
#151=FACE_OUTER_BOUND('',#235,.T.);
#152=FACE_OUTER_BOUND('',#236,.T.);
#153=FACE_OUTER_BOUND('',#237,.T.);
#154=FACE_OUTER_BOUND('',#238,.T.);
#155=FACE_OUTER_BOUND('',#239,.T.);
#156=FACE_OUTER_BOUND('',#240,.T.);
#157=FACE_OUTER_BOUND('',#241,.T.);
#158=FACE_OUTER_BOUND('',#242,.T.);
#159=FACE_OUTER_BOUND('',#243,.T.);
#160=FACE_OUTER_BOUND('',#244,.T.);
#161=FACE_OUTER_BOUND('',#245,.T.);
#162=FACE_OUTER_BOUND('',#246,.T.);
#163=FACE_OUTER_BOUND('',#247,.T.);
#164=FACE_OUTER_BOUND('',#248,.T.);
#165=FACE_OUTER_BOUND('',#249,.T.);
#166=FACE_OUTER_BOUND('',#250,.T.);
#167=FACE_OUTER_BOUND('',#251,.T.);
#168=FACE_OUTER_BOUND('',#252,.T.);
#169=FACE_OUTER_BOUND('',#253,.T.);
#170=FACE_OUTER_BOUND('',#254,.T.);
#171=FACE_OUTER_BOUND('',#255,.T.);
#172=FACE_OUTER_BOUND('',#256,.T.);
#173=FACE_OUTER_BOUND('',#257,.T.);
#174=FACE_OUTER_BOUND('',#258,.T.);
#175=FACE_OUTER_BOUND('',#259,.T.);
#176=FACE_OUTER_BOUND('',#260,.T.);
#177=FACE_OUTER_BOUND('',#261,.T.);
#178=FACE_OUTER_BOUND('',#262,.T.);
#179=FACE_OUTER_BOUND('',#263,.T.);
#180=FACE_OUTER_BOUND('',#264,.T.);
#181=FACE_OUTER_BOUND('',#265,.T.);
#182=FACE_OUTER_BOUND('',#266,.T.);
#183=FACE_OUTER_BOUND('',#267,.T.);
#184=FACE_OUTER_BOUND('',#268,.T.);
#185=FACE_OUTER_BOUND('',#269,.T.);
#186=FACE_OUTER_BOUND('',#270,.T.);
#187=FACE_OUTER_BOUND('',#271,.T.);
#188=FACE_OUTER_BOUND('',#272,.T.);
#189=FACE_OUTER_BOUND('',#273,.T.);
#190=FACE_OUTER_BOUND('',#274,.T.);
#191=FACE_OUTER_BOUND('',#275,.T.);
#192=FACE_OUTER_BOUND('',#276,.T.);
#193=FACE_OUTER_BOUND('',#277,.T.);
#194=FACE_OUTER_BOUND('',#278,.T.);
#195=FACE_OUTER_BOUND('',#279,.T.);
#196=FACE_OUTER_BOUND('',#280,.T.);
#197=FACE_OUTER_BOUND('',#281,.T.);
#198=FACE_OUTER_BOUND('',#282,.T.);
#199=FACE_OUTER_BOUND('',#283,.T.);
#200=FACE_OUTER_BOUND('',#284,.T.);
#201=FACE_OUTER_BOUND('',#285,.T.);
#202=FACE_OUTER_BOUND('',#286,.T.);
#203=FACE_OUTER_BOUND('',#287,.T.);
#204=FACE_OUTER_BOUND('',#288,.T.);
#205=FACE_OUTER_BOUND('',#289,.T.);
#206=FACE_OUTER_BOUND('',#290,.T.);
#207=FACE_OUTER_BOUND('',#291,.T.);
#208=FACE_OUTER_BOUND('',#292,.T.);
#209=FACE_OUTER_BOUND('',#293,.T.);
#210=FACE_OUTER_BOUND('',#294,.T.);
#211=FACE_OUTER_BOUND('',#295,.T.);
#212=FACE_OUTER_BOUND('',#296,.T.);
#213=FACE_OUTER_BOUND('',#297,.T.);
#214=FACE_OUTER_BOUND('',#298,.T.);
#215=FACE_OUTER_BOUND('',#299,.T.);
#216=FACE_OUTER_BOUND('',#300,.T.);
#217=FACE_OUTER_BOUND('',#301,.T.);
#218=FACE_OUTER_BOUND('',#302,.T.);
#219=EDGE_LOOP('',(#581,#582,#583,#584));
#220=EDGE_LOOP('',(#585,#586,#587,#588,#589,#590));
#221=EDGE_LOOP('',(#591,#592,#593,#594));
#222=EDGE_LOOP('',(#595,#596,#597,#598));
#223=EDGE_LOOP('',(#599,#600,#601,#602,#603,#604,#605,#606));
#224=EDGE_LOOP('',(#607,#608,#609,#610,#611,#612));
#225=EDGE_LOOP('',(#613,#614,#615,#616));
#226=EDGE_LOOP('',(#617,#618,#619,#620));
#227=EDGE_LOOP('',(#621,#622,#623,#624));
#228=EDGE_LOOP('',(#625,#626,#627,#628,#629,#630,#631,#632));
#229=EDGE_LOOP('',(#633,#634,#635,#636));
#230=EDGE_LOOP('',(#637,#638,#639,#640));
#231=EDGE_LOOP('',(#641));
#232=EDGE_LOOP('',(#642,#643,#644,#645));
#233=EDGE_LOOP('',(#646));
#234=EDGE_LOOP('',(#647));
#235=EDGE_LOOP('',(#648,#649,#650,#651));
#236=EDGE_LOOP('',(#652));
#237=EDGE_LOOP('',(#653));
#238=EDGE_LOOP('',(#654,#655,#656,#657));
#239=EDGE_LOOP('',(#658));
#240=EDGE_LOOP('',(#659));
#241=EDGE_LOOP('',(#660,#661,#662,#663));
#242=EDGE_LOOP('',(#664));
#243=EDGE_LOOP('',(#665));
#244=EDGE_LOOP('',(#666,#667,#668,#669));
#245=EDGE_LOOP('',(#670));
#246=EDGE_LOOP('',(#671));
#247=EDGE_LOOP('',(#672,#673,#674,#675));
#248=EDGE_LOOP('',(#676));
#249=EDGE_LOOP('',(#677));
#250=EDGE_LOOP('',(#678,#679,#680,#681));
#251=EDGE_LOOP('',(#682));
#252=EDGE_LOOP('',(#683));
#253=EDGE_LOOP('',(#684,#685,#686,#687));
#254=EDGE_LOOP('',(#688));
#255=EDGE_LOOP('',(#689));
#256=EDGE_LOOP('',(#690,#691,#692,#693));
#257=EDGE_LOOP('',(#694));
#258=EDGE_LOOP('',(#695));
#259=EDGE_LOOP('',(#696,#697,#698,#699));
#260=EDGE_LOOP('',(#700));
#261=EDGE_LOOP('',(#701));
#262=EDGE_LOOP('',(#702,#703,#704,#705));
#263=EDGE_LOOP('',(#706));
#264=EDGE_LOOP('',(#707));
#265=EDGE_LOOP('',(#708,#709,#710,#711));
#266=EDGE_LOOP('',(#712));
#267=EDGE_LOOP('',(#713,#714,#715,#716));
#268=EDGE_LOOP('',(#717));
#269=EDGE_LOOP('',(#718));
#270=EDGE_LOOP('',(#719,#720,#721,#722));
#271=EDGE_LOOP('',(#723));
#272=EDGE_LOOP('',(#724));
#273=EDGE_LOOP('',(#725,#726,#727,#728));
#274=EDGE_LOOP('',(#729));
#275=EDGE_LOOP('',(#730));
#276=EDGE_LOOP('',(#731,#732,#733,#734));
#277=EDGE_LOOP('',(#735));
#278=EDGE_LOOP('',(#736));
#279=EDGE_LOOP('',(#737,#738,#739,#740));
#280=EDGE_LOOP('',(#741));
#281=EDGE_LOOP('',(#742));
#282=EDGE_LOOP('',(#743,#744,#745,#746));
#283=EDGE_LOOP('',(#747));
#284=EDGE_LOOP('',(#748));
#285=EDGE_LOOP('',(#749,#750,#751,#752));
#286=EDGE_LOOP('',(#753));
#287=EDGE_LOOP('',(#754));
#288=EDGE_LOOP('',(#755,#756,#757,#758));
#289=EDGE_LOOP('',(#759));
#290=EDGE_LOOP('',(#760));
#291=EDGE_LOOP('',(#761,#762,#763,#764));
#292=EDGE_LOOP('',(#765));
#293=EDGE_LOOP('',(#766));
#294=EDGE_LOOP('',(#767,#768,#769,#770));
#295=EDGE_LOOP('',(#771));
#296=EDGE_LOOP('',(#772));
#297=EDGE_LOOP('',(#773,#774,#775,#776));
#298=EDGE_LOOP('',(#777));
#299=EDGE_LOOP('',(#778));
#300=EDGE_LOOP('',(#779,#780,#781,#782));
#301=EDGE_LOOP('',(#783));
#302=EDGE_LOOP('',(#784));
#303=LINE('',#1423,#357);
#304=LINE('',#1425,#358);
#305=LINE('',#1427,#359);
#306=LINE('',#1428,#360);
#307=LINE('',#1432,#361);
#308=LINE('',#1434,#362);
#309=LINE('',#1436,#363);
#310=LINE('',#1438,#364);
#311=LINE('',#1440,#365);
#312=LINE('',#1441,#366);
#313=LINE('',#1445,#367);
#314=LINE('',#1446,#368);
#315=LINE('',#1447,#369);
#316=LINE('',#1450,#370);
#317=LINE('',#1452,#371);
#318=LINE('',#1453,#372);
#319=LINE('',#1456,#373);
#320=LINE('',#1458,#374);
#321=LINE('',#1460,#375);
#322=LINE('',#1461,#376);
#323=LINE('',#1462,#377);
#324=LINE('',#1464,#378);
#325=LINE('',#1466,#379);
#326=LINE('',#1468,#380);
#327=LINE('',#1469,#381);
#328=LINE('',#1472,#382);
#329=LINE('',#1473,#383);
#330=LINE('',#1475,#384);
#331=LINE('',#1476,#385);
#332=LINE('',#1479,#386);
#333=LINE('',#1488,#387);
#334=LINE('',#1496,#388);
#335=LINE('',#1504,#389);
#336=LINE('',#1512,#390);
#337=LINE('',#1520,#391);
#338=LINE('',#1528,#392);
#339=LINE('',#1536,#393);
#340=LINE('',#1544,#394);
#341=LINE('',#1552,#395);
#342=LINE('',#1560,#396);
#343=LINE('',#1568,#397);
#344=LINE('',#1576,#398);
#345=LINE('',#1582,#399);
#346=LINE('',#1590,#400);
#347=LINE('',#1598,#401);
#348=LINE('',#1606,#402);
#349=LINE('',#1614,#403);
#350=LINE('',#1622,#404);
#351=LINE('',#1630,#405);
#352=LINE('',#1638,#406);
#353=LINE('',#1646,#407);
#354=LINE('',#1654,#408);
#355=LINE('',#1662,#409);
#356=LINE('',#1670,#410);
#357=VECTOR('',#1103,10.);
#358=VECTOR('',#1104,10.);
#359=VECTOR('',#1105,10.);
#360=VECTOR('',#1106,10.);
#361=VECTOR('',#1109,10.);
#362=VECTOR('',#1110,10.);
#363=VECTOR('',#1111,10.);
#364=VECTOR('',#1112,10.);
#365=VECTOR('',#1113,10.);
#366=VECTOR('',#1114,10.);
#367=VECTOR('',#1117,10.);
#368=VECTOR('',#1118,10.);
#369=VECTOR('',#1119,10.);
#370=VECTOR('',#1122,10.);
#371=VECTOR('',#1123,10.);
#372=VECTOR('',#1124,10.);
#373=VECTOR('',#1127,10.);
#374=VECTOR('',#1128,10.);
#375=VECTOR('',#1129,10.);
#376=VECTOR('',#1130,10.);
#377=VECTOR('',#1131,10.);
#378=VECTOR('',#1134,10.);
#379=VECTOR('',#1135,10.);
#380=VECTOR('',#1136,10.);
#381=VECTOR('',#1137,10.);
#382=VECTOR('',#1140,10.);
#383=VECTOR('',#1141,10.);
#384=VECTOR('',#1144,10.);
#385=VECTOR('',#1145,10.);
#386=VECTOR('',#1150,10.);
#387=VECTOR('',#1163,1.99999999999999);
#388=VECTOR('',#1174,2.00000000000003);
#389=VECTOR('',#1185,1.99999999999999);
#390=VECTOR('',#1196,1.99999999999999);
#391=VECTOR('',#1207,1.99999999999999);
#392=VECTOR('',#1218,2.00000000000003);
#393=VECTOR('',#1229,1.99999999999999);
#394=VECTOR('',#1240,2.00000000000003);
#395=VECTOR('',#1251,2.00000000000003);
#396=VECTOR('',#1262,1.99999999999999);
#397=VECTOR('',#1273,1.99999999999999);
#398=VECTOR('',#1284,1.99999999999999);
#399=VECTOR('',#1291,1.99999999999999);
#400=VECTOR('',#1302,2.00000000000003);
#401=VECTOR('',#1313,1.99999999999999);
#402=VECTOR('',#1324,1.99999999999999);
#403=VECTOR('',#1335,1.99999999999999);
#404=VECTOR('',#1346,1.99999999999999);
#405=VECTOR('',#1357,1.99999999999999);
#406=VECTOR('',#1368,1.99999999999999);
#407=VECTOR('',#1379,2.00000000000003);
#408=VECTOR('',#1390,1.99999999999999);
#409=VECTOR('',#1401,2.00000000000003);
#410=VECTOR('',#1412,2.00000000000003);
#411=VERTEX_POINT('',#1421);
#412=VERTEX_POINT('',#1422);
#413=VERTEX_POINT('',#1424);
#414=VERTEX_POINT('',#1426);
#415=VERTEX_POINT('',#1430);
#416=VERTEX_POINT('',#1431);
#417=VERTEX_POINT('',#1433);
#418=VERTEX_POINT('',#1435);
#419=VERTEX_POINT('',#1437);
#420=VERTEX_POINT('',#1439);
#421=VERTEX_POINT('',#1443);
#422=VERTEX_POINT('',#1444);
#423=VERTEX_POINT('',#1449);
#424=VERTEX_POINT('',#1451);
#425=VERTEX_POINT('',#1455);
#426=VERTEX_POINT('',#1457);
#427=VERTEX_POINT('',#1459);
#428=VERTEX_POINT('',#1465);
#429=VERTEX_POINT('',#1467);
#430=VERTEX_POINT('',#1471);
#431=VERTEX_POINT('',#1483);
#432=VERTEX_POINT('',#1486);
#433=VERTEX_POINT('',#1491);
#434=VERTEX_POINT('',#1494);
#435=VERTEX_POINT('',#1499);
#436=VERTEX_POINT('',#1502);
#437=VERTEX_POINT('',#1507);
#438=VERTEX_POINT('',#1510);
#439=VERTEX_POINT('',#1515);
#440=VERTEX_POINT('',#1518);
#441=VERTEX_POINT('',#1523);
#442=VERTEX_POINT('',#1526);
#443=VERTEX_POINT('',#1531);
#444=VERTEX_POINT('',#1534);
#445=VERTEX_POINT('',#1539);
#446=VERTEX_POINT('',#1542);
#447=VERTEX_POINT('',#1547);
#448=VERTEX_POINT('',#1550);
#449=VERTEX_POINT('',#1555);
#450=VERTEX_POINT('',#1558);
#451=VERTEX_POINT('',#1563);
#452=VERTEX_POINT('',#1566);
#453=VERTEX_POINT('',#1571);
#454=VERTEX_POINT('',#1574);
#455=VERTEX_POINT('',#1579);
#456=VERTEX_POINT('',#1581);
#457=VERTEX_POINT('',#1587);
#458=VERTEX_POINT('',#1589);
#459=VERTEX_POINT('',#1595);
#460=VERTEX_POINT('',#1597);
#461=VERTEX_POINT('',#1603);
#462=VERTEX_POINT('',#1605);
#463=VERTEX_POINT('',#1611);
#464=VERTEX_POINT('',#1613);
#465=VERTEX_POINT('',#1619);
#466=VERTEX_POINT('',#1621);
#467=VERTEX_POINT('',#1627);
#468=VERTEX_POINT('',#1629);
#469=VERTEX_POINT('',#1635);
#470=VERTEX_POINT('',#1637);
#471=VERTEX_POINT('',#1643);
#472=VERTEX_POINT('',#1645);
#473=VERTEX_POINT('',#1651);
#474=VERTEX_POINT('',#1653);
#475=VERTEX_POINT('',#1659);
#476=VERTEX_POINT('',#1661);
#477=VERTEX_POINT('',#1667);
#478=VERTEX_POINT('',#1669);
#479=EDGE_CURVE('',#411,#412,#303,.T.);
#480=EDGE_CURVE('',#413,#411,#304,.T.);
#481=EDGE_CURVE('',#414,#413,#305,.T.);
#482=EDGE_CURVE('',#412,#414,#306,.T.);
#483=EDGE_CURVE('',#415,#416,#307,.T.);
#484=EDGE_CURVE('',#416,#417,#308,.T.);
#485=EDGE_CURVE('',#418,#417,#309,.T.);
#486=EDGE_CURVE('',#418,#419,#310,.T.);
#487=EDGE_CURVE('',#420,#419,#311,.T.);
#488=EDGE_CURVE('',#415,#420,#312,.T.);
#489=EDGE_CURVE('',#421,#422,#313,.T.);
#490=EDGE_CURVE('',#422,#414,#314,.T.);
#491=EDGE_CURVE('',#421,#413,#315,.T.);
#492=EDGE_CURVE('',#417,#423,#316,.T.);
#493=EDGE_CURVE('',#423,#424,#317,.T.);
#494=EDGE_CURVE('',#424,#418,#318,.T.);
#495=EDGE_CURVE('',#425,#415,#319,.T.);
#496=EDGE_CURVE('',#426,#425,#320,.T.);
#497=EDGE_CURVE('',#427,#426,#321,.T.);
#498=EDGE_CURVE('',#412,#427,#322,.T.);
#499=EDGE_CURVE('',#416,#422,#323,.T.);
#500=EDGE_CURVE('',#423,#426,#324,.T.);
#501=EDGE_CURVE('',#425,#428,#325,.T.);
#502=EDGE_CURVE('',#429,#428,#326,.T.);
#503=EDGE_CURVE('',#424,#429,#327,.T.);
#504=EDGE_CURVE('',#427,#430,#328,.T.);
#505=EDGE_CURVE('',#430,#411,#329,.T.);
#506=EDGE_CURVE('',#428,#420,#330,.T.);
#507=EDGE_CURVE('',#419,#429,#331,.T.);
#508=EDGE_CURVE('',#430,#421,#332,.T.);
#509=EDGE_CURVE('',#431,#431,#37,.T.);
#510=EDGE_CURVE('',#432,#432,#38,.T.);
#511=EDGE_CURVE('',#432,#431,#333,.T.);
#512=EDGE_CURVE('',#433,#433,#39,.T.);
#513=EDGE_CURVE('',#434,#434,#40,.T.);
#514=EDGE_CURVE('',#434,#433,#334,.T.);
#515=EDGE_CURVE('',#435,#435,#41,.T.);
#516=EDGE_CURVE('',#436,#436,#42,.T.);
#517=EDGE_CURVE('',#436,#435,#335,.T.);
#518=EDGE_CURVE('',#437,#437,#43,.T.);
#519=EDGE_CURVE('',#438,#438,#44,.T.);
#520=EDGE_CURVE('',#438,#437,#336,.T.);
#521=EDGE_CURVE('',#439,#439,#45,.T.);
#522=EDGE_CURVE('',#440,#440,#46,.T.);
#523=EDGE_CURVE('',#440,#439,#337,.T.);
#524=EDGE_CURVE('',#441,#441,#47,.T.);
#525=EDGE_CURVE('',#442,#442,#48,.T.);
#526=EDGE_CURVE('',#442,#441,#338,.T.);
#527=EDGE_CURVE('',#443,#443,#49,.T.);
#528=EDGE_CURVE('',#444,#444,#50,.T.);
#529=EDGE_CURVE('',#444,#443,#339,.T.);
#530=EDGE_CURVE('',#445,#445,#51,.T.);
#531=EDGE_CURVE('',#446,#446,#52,.T.);
#532=EDGE_CURVE('',#446,#445,#340,.T.);
#533=EDGE_CURVE('',#447,#447,#53,.T.);
#534=EDGE_CURVE('',#448,#448,#54,.T.);
#535=EDGE_CURVE('',#448,#447,#341,.T.);
#536=EDGE_CURVE('',#449,#449,#55,.T.);
#537=EDGE_CURVE('',#450,#450,#56,.T.);
#538=EDGE_CURVE('',#450,#449,#342,.T.);
#539=EDGE_CURVE('',#451,#451,#57,.T.);
#540=EDGE_CURVE('',#452,#452,#58,.T.);
#541=EDGE_CURVE('',#452,#451,#343,.T.);
#542=EDGE_CURVE('',#453,#453,#59,.T.);
#543=EDGE_CURVE('',#454,#454,#60,.T.);
#544=EDGE_CURVE('',#454,#453,#344,.T.);
#545=EDGE_CURVE('',#455,#455,#61,.T.);
#546=EDGE_CURVE('',#455,#456,#345,.T.);
#547=EDGE_CURVE('',#456,#456,#62,.T.);
#548=EDGE_CURVE('',#457,#457,#63,.T.);
#549=EDGE_CURVE('',#457,#458,#346,.T.);
#550=EDGE_CURVE('',#458,#458,#64,.T.);
#551=EDGE_CURVE('',#459,#459,#65,.T.);
#552=EDGE_CURVE('',#459,#460,#347,.T.);
#553=EDGE_CURVE('',#460,#460,#66,.T.);
#554=EDGE_CURVE('',#461,#461,#67,.T.);
#555=EDGE_CURVE('',#461,#462,#348,.T.);
#556=EDGE_CURVE('',#462,#462,#68,.T.);
#557=EDGE_CURVE('',#463,#463,#69,.T.);
#558=EDGE_CURVE('',#463,#464,#349,.T.);
#559=EDGE_CURVE('',#464,#464,#70,.T.);
#560=EDGE_CURVE('',#465,#465,#71,.T.);
#561=EDGE_CURVE('',#465,#466,#350,.T.);
#562=EDGE_CURVE('',#466,#466,#72,.T.);
#563=EDGE_CURVE('',#467,#467,#73,.T.);
#564=EDGE_CURVE('',#467,#468,#351,.T.);
#565=EDGE_CURVE('',#468,#468,#74,.T.);
#566=EDGE_CURVE('',#469,#469,#75,.T.);
#567=EDGE_CURVE('',#469,#470,#352,.T.);
#568=EDGE_CURVE('',#470,#470,#76,.T.);
#569=EDGE_CURVE('',#471,#471,#77,.T.);
#570=EDGE_CURVE('',#471,#472,#353,.T.);
#571=EDGE_CURVE('',#472,#472,#78,.T.);
#572=EDGE_CURVE('',#473,#473,#79,.T.);
#573=EDGE_CURVE('',#473,#474,#354,.T.);
#574=EDGE_CURVE('',#474,#474,#80,.T.);
#575=EDGE_CURVE('',#475,#475,#81,.T.);
#576=EDGE_CURVE('',#475,#476,#355,.T.);
#577=EDGE_CURVE('',#476,#476,#82,.T.);
#578=EDGE_CURVE('',#477,#477,#83,.T.);
#579=EDGE_CURVE('',#477,#478,#356,.T.);
#580=EDGE_CURVE('',#478,#478,#84,.T.);
#581=ORIENTED_EDGE('',*,*,#479,.F.);
#582=ORIENTED_EDGE('',*,*,#480,.F.);
#583=ORIENTED_EDGE('',*,*,#481,.F.);
#584=ORIENTED_EDGE('',*,*,#482,.F.);
#585=ORIENTED_EDGE('',*,*,#483,.T.);
#586=ORIENTED_EDGE('',*,*,#484,.T.);
#587=ORIENTED_EDGE('',*,*,#485,.F.);
#588=ORIENTED_EDGE('',*,*,#486,.T.);
#589=ORIENTED_EDGE('',*,*,#487,.F.);
#590=ORIENTED_EDGE('',*,*,#488,.F.);
#591=ORIENTED_EDGE('',*,*,#489,.T.);
#592=ORIENTED_EDGE('',*,*,#490,.T.);
#593=ORIENTED_EDGE('',*,*,#481,.T.);
#594=ORIENTED_EDGE('',*,*,#491,.F.);
#595=ORIENTED_EDGE('',*,*,#492,.T.);
#596=ORIENTED_EDGE('',*,*,#493,.T.);
#597=ORIENTED_EDGE('',*,*,#494,.T.);
#598=ORIENTED_EDGE('',*,*,#485,.T.);
#599=ORIENTED_EDGE('',*,*,#495,.F.);
#600=ORIENTED_EDGE('',*,*,#496,.F.);
#601=ORIENTED_EDGE('',*,*,#497,.F.);
#602=ORIENTED_EDGE('',*,*,#498,.F.);
#603=ORIENTED_EDGE('',*,*,#482,.T.);
#604=ORIENTED_EDGE('',*,*,#490,.F.);
#605=ORIENTED_EDGE('',*,*,#499,.F.);
#606=ORIENTED_EDGE('',*,*,#483,.F.);
#607=ORIENTED_EDGE('',*,*,#500,.T.);
#608=ORIENTED_EDGE('',*,*,#496,.T.);
#609=ORIENTED_EDGE('',*,*,#501,.T.);
#610=ORIENTED_EDGE('',*,*,#502,.F.);
#611=ORIENTED_EDGE('',*,*,#503,.F.);
#612=ORIENTED_EDGE('',*,*,#493,.F.);
#613=ORIENTED_EDGE('',*,*,#504,.T.);
#614=ORIENTED_EDGE('',*,*,#505,.T.);
#615=ORIENTED_EDGE('',*,*,#479,.T.);
#616=ORIENTED_EDGE('',*,*,#498,.T.);
#617=ORIENTED_EDGE('',*,*,#506,.T.);
#618=ORIENTED_EDGE('',*,*,#487,.T.);
#619=ORIENTED_EDGE('',*,*,#507,.T.);
#620=ORIENTED_EDGE('',*,*,#502,.T.);
#621=ORIENTED_EDGE('',*,*,#495,.T.);
#622=ORIENTED_EDGE('',*,*,#488,.T.);
#623=ORIENTED_EDGE('',*,*,#506,.F.);
#624=ORIENTED_EDGE('',*,*,#501,.F.);
#625=ORIENTED_EDGE('',*,*,#508,.F.);
#626=ORIENTED_EDGE('',*,*,#504,.F.);
#627=ORIENTED_EDGE('',*,*,#497,.T.);
#628=ORIENTED_EDGE('',*,*,#500,.F.);
#629=ORIENTED_EDGE('',*,*,#492,.F.);
#630=ORIENTED_EDGE('',*,*,#484,.F.);
#631=ORIENTED_EDGE('',*,*,#499,.T.);
#632=ORIENTED_EDGE('',*,*,#489,.F.);
#633=ORIENTED_EDGE('',*,*,#508,.T.);
#634=ORIENTED_EDGE('',*,*,#491,.T.);
#635=ORIENTED_EDGE('',*,*,#480,.T.);
#636=ORIENTED_EDGE('',*,*,#505,.F.);
#637=ORIENTED_EDGE('',*,*,#503,.T.);
#638=ORIENTED_EDGE('',*,*,#507,.F.);
#639=ORIENTED_EDGE('',*,*,#486,.F.);
#640=ORIENTED_EDGE('',*,*,#494,.F.);
#641=ORIENTED_EDGE('',*,*,#509,.T.);
#642=ORIENTED_EDGE('',*,*,#510,.F.);
#643=ORIENTED_EDGE('',*,*,#511,.T.);
#644=ORIENTED_EDGE('',*,*,#509,.F.);
#645=ORIENTED_EDGE('',*,*,#511,.F.);
#646=ORIENTED_EDGE('',*,*,#510,.T.);
#647=ORIENTED_EDGE('',*,*,#512,.T.);
#648=ORIENTED_EDGE('',*,*,#513,.F.);
#649=ORIENTED_EDGE('',*,*,#514,.T.);
#650=ORIENTED_EDGE('',*,*,#512,.F.);
#651=ORIENTED_EDGE('',*,*,#514,.F.);
#652=ORIENTED_EDGE('',*,*,#513,.T.);
#653=ORIENTED_EDGE('',*,*,#515,.T.);
#654=ORIENTED_EDGE('',*,*,#516,.F.);
#655=ORIENTED_EDGE('',*,*,#517,.T.);
#656=ORIENTED_EDGE('',*,*,#515,.F.);
#657=ORIENTED_EDGE('',*,*,#517,.F.);
#658=ORIENTED_EDGE('',*,*,#516,.T.);
#659=ORIENTED_EDGE('',*,*,#518,.T.);
#660=ORIENTED_EDGE('',*,*,#519,.F.);
#661=ORIENTED_EDGE('',*,*,#520,.T.);
#662=ORIENTED_EDGE('',*,*,#518,.F.);
#663=ORIENTED_EDGE('',*,*,#520,.F.);
#664=ORIENTED_EDGE('',*,*,#519,.T.);
#665=ORIENTED_EDGE('',*,*,#521,.T.);
#666=ORIENTED_EDGE('',*,*,#522,.F.);
#667=ORIENTED_EDGE('',*,*,#523,.T.);
#668=ORIENTED_EDGE('',*,*,#521,.F.);
#669=ORIENTED_EDGE('',*,*,#523,.F.);
#670=ORIENTED_EDGE('',*,*,#522,.T.);
#671=ORIENTED_EDGE('',*,*,#524,.T.);
#672=ORIENTED_EDGE('',*,*,#525,.F.);
#673=ORIENTED_EDGE('',*,*,#526,.T.);
#674=ORIENTED_EDGE('',*,*,#524,.F.);
#675=ORIENTED_EDGE('',*,*,#526,.F.);
#676=ORIENTED_EDGE('',*,*,#525,.T.);
#677=ORIENTED_EDGE('',*,*,#527,.T.);
#678=ORIENTED_EDGE('',*,*,#528,.F.);
#679=ORIENTED_EDGE('',*,*,#529,.T.);
#680=ORIENTED_EDGE('',*,*,#527,.F.);
#681=ORIENTED_EDGE('',*,*,#529,.F.);
#682=ORIENTED_EDGE('',*,*,#528,.T.);
#683=ORIENTED_EDGE('',*,*,#530,.T.);
#684=ORIENTED_EDGE('',*,*,#531,.F.);
#685=ORIENTED_EDGE('',*,*,#532,.T.);
#686=ORIENTED_EDGE('',*,*,#530,.F.);
#687=ORIENTED_EDGE('',*,*,#532,.F.);
#688=ORIENTED_EDGE('',*,*,#531,.T.);
#689=ORIENTED_EDGE('',*,*,#533,.T.);
#690=ORIENTED_EDGE('',*,*,#534,.F.);
#691=ORIENTED_EDGE('',*,*,#535,.T.);
#692=ORIENTED_EDGE('',*,*,#533,.F.);
#693=ORIENTED_EDGE('',*,*,#535,.F.);
#694=ORIENTED_EDGE('',*,*,#534,.T.);
#695=ORIENTED_EDGE('',*,*,#536,.T.);
#696=ORIENTED_EDGE('',*,*,#537,.F.);
#697=ORIENTED_EDGE('',*,*,#538,.T.);
#698=ORIENTED_EDGE('',*,*,#536,.F.);
#699=ORIENTED_EDGE('',*,*,#538,.F.);
#700=ORIENTED_EDGE('',*,*,#537,.T.);
#701=ORIENTED_EDGE('',*,*,#539,.T.);
#702=ORIENTED_EDGE('',*,*,#540,.F.);
#703=ORIENTED_EDGE('',*,*,#541,.T.);
#704=ORIENTED_EDGE('',*,*,#539,.F.);
#705=ORIENTED_EDGE('',*,*,#541,.F.);
#706=ORIENTED_EDGE('',*,*,#540,.T.);
#707=ORIENTED_EDGE('',*,*,#542,.T.);
#708=ORIENTED_EDGE('',*,*,#543,.F.);
#709=ORIENTED_EDGE('',*,*,#544,.T.);
#710=ORIENTED_EDGE('',*,*,#542,.F.);
#711=ORIENTED_EDGE('',*,*,#544,.F.);
#712=ORIENTED_EDGE('',*,*,#543,.T.);
#713=ORIENTED_EDGE('',*,*,#545,.F.);
#714=ORIENTED_EDGE('',*,*,#546,.T.);
#715=ORIENTED_EDGE('',*,*,#547,.T.);
#716=ORIENTED_EDGE('',*,*,#546,.F.);
#717=ORIENTED_EDGE('',*,*,#545,.T.);
#718=ORIENTED_EDGE('',*,*,#547,.F.);
#719=ORIENTED_EDGE('',*,*,#548,.F.);
#720=ORIENTED_EDGE('',*,*,#549,.T.);
#721=ORIENTED_EDGE('',*,*,#550,.T.);
#722=ORIENTED_EDGE('',*,*,#549,.F.);
#723=ORIENTED_EDGE('',*,*,#548,.T.);
#724=ORIENTED_EDGE('',*,*,#550,.F.);
#725=ORIENTED_EDGE('',*,*,#551,.F.);
#726=ORIENTED_EDGE('',*,*,#552,.T.);
#727=ORIENTED_EDGE('',*,*,#553,.T.);
#728=ORIENTED_EDGE('',*,*,#552,.F.);
#729=ORIENTED_EDGE('',*,*,#551,.T.);
#730=ORIENTED_EDGE('',*,*,#553,.F.);
#731=ORIENTED_EDGE('',*,*,#554,.F.);
#732=ORIENTED_EDGE('',*,*,#555,.T.);
#733=ORIENTED_EDGE('',*,*,#556,.T.);
#734=ORIENTED_EDGE('',*,*,#555,.F.);
#735=ORIENTED_EDGE('',*,*,#554,.T.);
#736=ORIENTED_EDGE('',*,*,#556,.F.);
#737=ORIENTED_EDGE('',*,*,#557,.F.);
#738=ORIENTED_EDGE('',*,*,#558,.T.);
#739=ORIENTED_EDGE('',*,*,#559,.T.);
#740=ORIENTED_EDGE('',*,*,#558,.F.);
#741=ORIENTED_EDGE('',*,*,#557,.T.);
#742=ORIENTED_EDGE('',*,*,#559,.F.);
#743=ORIENTED_EDGE('',*,*,#560,.F.);
#744=ORIENTED_EDGE('',*,*,#561,.T.);
#745=ORIENTED_EDGE('',*,*,#562,.T.);
#746=ORIENTED_EDGE('',*,*,#561,.F.);
#747=ORIENTED_EDGE('',*,*,#560,.T.);
#748=ORIENTED_EDGE('',*,*,#562,.F.);
#749=ORIENTED_EDGE('',*,*,#563,.F.);
#750=ORIENTED_EDGE('',*,*,#564,.T.);
#751=ORIENTED_EDGE('',*,*,#565,.T.);
#752=ORIENTED_EDGE('',*,*,#564,.F.);
#753=ORIENTED_EDGE('',*,*,#563,.T.);
#754=ORIENTED_EDGE('',*,*,#565,.F.);
#755=ORIENTED_EDGE('',*,*,#566,.F.);
#756=ORIENTED_EDGE('',*,*,#567,.T.);
#757=ORIENTED_EDGE('',*,*,#568,.T.);
#758=ORIENTED_EDGE('',*,*,#567,.F.);
#759=ORIENTED_EDGE('',*,*,#566,.T.);
#760=ORIENTED_EDGE('',*,*,#568,.F.);
#761=ORIENTED_EDGE('',*,*,#569,.F.);
#762=ORIENTED_EDGE('',*,*,#570,.T.);
#763=ORIENTED_EDGE('',*,*,#571,.T.);
#764=ORIENTED_EDGE('',*,*,#570,.F.);
#765=ORIENTED_EDGE('',*,*,#569,.T.);
#766=ORIENTED_EDGE('',*,*,#571,.F.);
#767=ORIENTED_EDGE('',*,*,#572,.F.);
#768=ORIENTED_EDGE('',*,*,#573,.T.);
#769=ORIENTED_EDGE('',*,*,#574,.T.);
#770=ORIENTED_EDGE('',*,*,#573,.F.);
#771=ORIENTED_EDGE('',*,*,#572,.T.);
#772=ORIENTED_EDGE('',*,*,#574,.F.);
#773=ORIENTED_EDGE('',*,*,#575,.F.);
#774=ORIENTED_EDGE('',*,*,#576,.T.);
#775=ORIENTED_EDGE('',*,*,#577,.T.);
#776=ORIENTED_EDGE('',*,*,#576,.F.);
#777=ORIENTED_EDGE('',*,*,#575,.T.);
#778=ORIENTED_EDGE('',*,*,#577,.F.);
#779=ORIENTED_EDGE('',*,*,#578,.F.);
#780=ORIENTED_EDGE('',*,*,#579,.T.);
#781=ORIENTED_EDGE('',*,*,#580,.T.);
#782=ORIENTED_EDGE('',*,*,#579,.F.);
#783=ORIENTED_EDGE('',*,*,#578,.T.);
#784=ORIENTED_EDGE('',*,*,#580,.F.);
#785=PLANE('',#967);
#786=PLANE('',#968);
#787=PLANE('',#969);
#788=PLANE('',#970);
#789=PLANE('',#971);
#790=PLANE('',#972);
#791=PLANE('',#973);
#792=PLANE('',#974);
#793=PLANE('',#975);
#794=PLANE('',#976);
#795=PLANE('',#977);
#796=PLANE('',#978);
#797=PLANE('',#979);
#798=PLANE('',#983);
#799=PLANE('',#984);
#800=PLANE('',#988);
#801=PLANE('',#989);
#802=PLANE('',#993);
#803=PLANE('',#994);
#804=PLANE('',#998);
#805=PLANE('',#999);
#806=PLANE('',#1003);
#807=PLANE('',#1004);
#808=PLANE('',#1008);
#809=PLANE('',#1009);
#810=PLANE('',#1013);
#811=PLANE('',#1014);
#812=PLANE('',#1018);
#813=PLANE('',#1019);
#814=PLANE('',#1023);
#815=PLANE('',#1024);
#816=PLANE('',#1028);
#817=PLANE('',#1029);
#818=PLANE('',#1033);
#819=PLANE('',#1034);
#820=PLANE('',#1038);
#821=PLANE('',#1042);
#822=PLANE('',#1043);
#823=PLANE('',#1047);
#824=PLANE('',#1048);
#825=PLANE('',#1052);
#826=PLANE('',#1053);
#827=PLANE('',#1057);
#828=PLANE('',#1058);
#829=PLANE('',#1062);
#830=PLANE('',#1063);
#831=PLANE('',#1067);
#832=PLANE('',#1068);
#833=PLANE('',#1072);
#834=PLANE('',#1073);
#835=PLANE('',#1077);
#836=PLANE('',#1078);
#837=PLANE('',#1082);
#838=PLANE('',#1083);
#839=PLANE('',#1087);
#840=PLANE('',#1088);
#841=PLANE('',#1092);
#842=PLANE('',#1093);
#843=PLANE('',#1097);
#844=PLANE('',#1098);
#845=ADVANCED_FACE('',(#135),#785,.F.);
#846=ADVANCED_FACE('',(#136),#786,.T.);
#847=ADVANCED_FACE('',(#137),#787,.F.);
#848=ADVANCED_FACE('',(#138),#788,.T.);
#849=ADVANCED_FACE('',(#139),#789,.F.);
#850=ADVANCED_FACE('',(#140),#790,.T.);
#851=ADVANCED_FACE('',(#141),#791,.F.);
#852=ADVANCED_FACE('',(#142),#792,.T.);
#853=ADVANCED_FACE('',(#143),#793,.T.);
#854=ADVANCED_FACE('',(#144),#794,.F.);
#855=ADVANCED_FACE('',(#145),#795,.F.);
#856=ADVANCED_FACE('',(#146),#796,.T.);
#857=ADVANCED_FACE('',(#147),#797,.F.);
#858=ADVANCED_FACE('',(#148),#13,.T.);
#859=ADVANCED_FACE('',(#149),#798,.T.);
#860=ADVANCED_FACE('',(#150),#799,.F.);
#861=ADVANCED_FACE('',(#151),#14,.T.);
#862=ADVANCED_FACE('',(#152),#800,.T.);
#863=ADVANCED_FACE('',(#153),#801,.F.);
#864=ADVANCED_FACE('',(#154),#15,.T.);
#865=ADVANCED_FACE('',(#155),#802,.T.);
#866=ADVANCED_FACE('',(#156),#803,.F.);
#867=ADVANCED_FACE('',(#157),#16,.T.);
#868=ADVANCED_FACE('',(#158),#804,.T.);
#869=ADVANCED_FACE('',(#159),#805,.F.);
#870=ADVANCED_FACE('',(#160),#17,.T.);
#871=ADVANCED_FACE('',(#161),#806,.T.);
#872=ADVANCED_FACE('',(#162),#807,.F.);
#873=ADVANCED_FACE('',(#163),#18,.T.);
#874=ADVANCED_FACE('',(#164),#808,.T.);
#875=ADVANCED_FACE('',(#165),#809,.F.);
#876=ADVANCED_FACE('',(#166),#19,.T.);
#877=ADVANCED_FACE('',(#167),#810,.T.);
#878=ADVANCED_FACE('',(#168),#811,.F.);
#879=ADVANCED_FACE('',(#169),#20,.T.);
#880=ADVANCED_FACE('',(#170),#812,.T.);
#881=ADVANCED_FACE('',(#171),#813,.F.);
#882=ADVANCED_FACE('',(#172),#21,.T.);
#883=ADVANCED_FACE('',(#173),#814,.T.);
#884=ADVANCED_FACE('',(#174),#815,.F.);
#885=ADVANCED_FACE('',(#175),#22,.T.);
#886=ADVANCED_FACE('',(#176),#816,.T.);
#887=ADVANCED_FACE('',(#177),#817,.F.);
#888=ADVANCED_FACE('',(#178),#23,.T.);
#889=ADVANCED_FACE('',(#179),#818,.T.);
#890=ADVANCED_FACE('',(#180),#819,.F.);
#891=ADVANCED_FACE('',(#181),#24,.T.);
#892=ADVANCED_FACE('',(#182),#820,.T.);
#893=ADVANCED_FACE('',(#183),#25,.T.);
#894=ADVANCED_FACE('',(#184),#821,.T.);
#895=ADVANCED_FACE('',(#185),#822,.F.);
#896=ADVANCED_FACE('',(#186),#26,.T.);
#897=ADVANCED_FACE('',(#187),#823,.T.);
#898=ADVANCED_FACE('',(#188),#824,.F.);
#899=ADVANCED_FACE('',(#189),#27,.T.);
#900=ADVANCED_FACE('',(#190),#825,.T.);
#901=ADVANCED_FACE('',(#191),#826,.F.);
#902=ADVANCED_FACE('',(#192),#28,.T.);
#903=ADVANCED_FACE('',(#193),#827,.T.);
#904=ADVANCED_FACE('',(#194),#828,.F.);
#905=ADVANCED_FACE('',(#195),#29,.T.);
#906=ADVANCED_FACE('',(#196),#829,.T.);
#907=ADVANCED_FACE('',(#197),#830,.F.);
#908=ADVANCED_FACE('',(#198),#30,.T.);
#909=ADVANCED_FACE('',(#199),#831,.T.);
#910=ADVANCED_FACE('',(#200),#832,.F.);
#911=ADVANCED_FACE('',(#201),#31,.T.);
#912=ADVANCED_FACE('',(#202),#833,.T.);
#913=ADVANCED_FACE('',(#203),#834,.F.);
#914=ADVANCED_FACE('',(#204),#32,.T.);
#915=ADVANCED_FACE('',(#205),#835,.T.);
#916=ADVANCED_FACE('',(#206),#836,.F.);
#917=ADVANCED_FACE('',(#207),#33,.T.);
#918=ADVANCED_FACE('',(#208),#837,.T.);
#919=ADVANCED_FACE('',(#209),#838,.F.);
#920=ADVANCED_FACE('',(#210),#34,.T.);
#921=ADVANCED_FACE('',(#211),#839,.T.);
#922=ADVANCED_FACE('',(#212),#840,.F.);
#923=ADVANCED_FACE('',(#213),#35,.T.);
#924=ADVANCED_FACE('',(#214),#841,.T.);
#925=ADVANCED_FACE('',(#215),#842,.F.);
#926=ADVANCED_FACE('',(#216),#36,.T.);
#927=ADVANCED_FACE('',(#217),#843,.T.);
#928=ADVANCED_FACE('',(#218),#844,.F.);
#929=CLOSED_SHELL('',(#845,#846,#847,#848,#849,#850,#851,#852,#853,#854,
#855,#856));
#930=CLOSED_SHELL('',(#857,#858,#859));
#931=CLOSED_SHELL('',(#860,#861,#862));
#932=CLOSED_SHELL('',(#863,#864,#865));
#933=CLOSED_SHELL('',(#866,#867,#868));
#934=CLOSED_SHELL('',(#869,#870,#871));
#935=CLOSED_SHELL('',(#872,#873,#874));
#936=CLOSED_SHELL('',(#875,#876,#877));
#937=CLOSED_SHELL('',(#878,#879,#880));
#938=CLOSED_SHELL('',(#881,#882,#883));
#939=CLOSED_SHELL('',(#884,#885,#886));
#940=CLOSED_SHELL('',(#887,#888,#889));
#941=CLOSED_SHELL('',(#890,#891,#892));
#942=CLOSED_SHELL('',(#893,#894,#895));
#943=CLOSED_SHELL('',(#896,#897,#898));
#944=CLOSED_SHELL('',(#899,#900,#901));
#945=CLOSED_SHELL('',(#902,#903,#904));
#946=CLOSED_SHELL('',(#905,#906,#907));
#947=CLOSED_SHELL('',(#908,#909,#910));
#948=CLOSED_SHELL('',(#911,#912,#913));
#949=CLOSED_SHELL('',(#914,#915,#916));
#950=CLOSED_SHELL('',(#917,#918,#919));
#951=CLOSED_SHELL('',(#920,#921,#922));
#952=CLOSED_SHELL('',(#923,#924,#925));
#953=CLOSED_SHELL('',(#926,#927,#928));
#954=DERIVED_UNIT_ELEMENT(#956,1.);
#955=DERIVED_UNIT_ELEMENT(#1679,-3.);
#956=(
MASS_UNIT()
NAMED_UNIT(*)
SI_UNIT(.KILO.,.GRAM.)
);
#957=DERIVED_UNIT((#954,#955));
#958=MEASURE_REPRESENTATION_ITEM('density measure',
POSITIVE_RATIO_MEASURE(7850.),#957);
#959=PROPERTY_DEFINITION_REPRESENTATION(#964,#961);
#960=PROPERTY_DEFINITION_REPRESENTATION(#965,#962);
#961=REPRESENTATION('material name',(#963),#1676);
#962=REPRESENTATION('density',(#958),#1676);
#963=DESCRIPTIVE_REPRESENTATION_ITEM('Steel','Steel');
#964=PROPERTY_DEFINITION('material property','material name',#1686);
#965=PROPERTY_DEFINITION('material property','density of part',#1686);
#966=AXIS2_PLACEMENT_3D('',#1419,#1099,#1100);
#967=AXIS2_PLACEMENT_3D('',#1420,#1101,#1102);
#968=AXIS2_PLACEMENT_3D('',#1429,#1107,#1108);
#969=AXIS2_PLACEMENT_3D('',#1442,#1115,#1116);
#970=AXIS2_PLACEMENT_3D('',#1448,#1120,#1121);
#971=AXIS2_PLACEMENT_3D('',#1454,#1125,#1126);
#972=AXIS2_PLACEMENT_3D('',#1463,#1132,#1133);
#973=AXIS2_PLACEMENT_3D('',#1470,#1138,#1139);
#974=AXIS2_PLACEMENT_3D('',#1474,#1142,#1143);
#975=AXIS2_PLACEMENT_3D('',#1477,#1146,#1147);
#976=AXIS2_PLACEMENT_3D('',#1478,#1148,#1149);
#977=AXIS2_PLACEMENT_3D('',#1480,#1151,#1152);
#978=AXIS2_PLACEMENT_3D('',#1481,#1153,#1154);
#979=AXIS2_PLACEMENT_3D('',#1482,#1155,#1156);
#980=AXIS2_PLACEMENT_3D('',#1484,#1157,#1158);
#981=AXIS2_PLACEMENT_3D('',#1485,#1159,#1160);
#982=AXIS2_PLACEMENT_3D('',#1487,#1161,#1162);
#983=AXIS2_PLACEMENT_3D('',#1489,#1164,#1165);
#984=AXIS2_PLACEMENT_3D('',#1490,#1166,#1167);
#985=AXIS2_PLACEMENT_3D('',#1492,#1168,#1169);
#986=AXIS2_PLACEMENT_3D('',#1493,#1170,#1171);
#987=AXIS2_PLACEMENT_3D('',#1495,#1172,#1173);
#988=AXIS2_PLACEMENT_3D('',#1497,#1175,#1176);
#989=AXIS2_PLACEMENT_3D('',#1498,#1177,#1178);
#990=AXIS2_PLACEMENT_3D('',#1500,#1179,#1180);
#991=AXIS2_PLACEMENT_3D('',#1501,#1181,#1182);
#992=AXIS2_PLACEMENT_3D('',#1503,#1183,#1184);
#993=AXIS2_PLACEMENT_3D('',#1505,#1186,#1187);
#994=AXIS2_PLACEMENT_3D('',#1506,#1188,#1189);
#995=AXIS2_PLACEMENT_3D('',#1508,#1190,#1191);
#996=AXIS2_PLACEMENT_3D('',#1509,#1192,#1193);
#997=AXIS2_PLACEMENT_3D('',#1511,#1194,#1195);
#998=AXIS2_PLACEMENT_3D('',#1513,#1197,#1198);
#999=AXIS2_PLACEMENT_3D('',#1514,#1199,#1200);
#1000=AXIS2_PLACEMENT_3D('',#1516,#1201,#1202);
#1001=AXIS2_PLACEMENT_3D('',#1517,#1203,#1204);
#1002=AXIS2_PLACEMENT_3D('',#1519,#1205,#1206);
#1003=AXIS2_PLACEMENT_3D('',#1521,#1208,#1209);
#1004=AXIS2_PLACEMENT_3D('',#1522,#1210,#1211);
#1005=AXIS2_PLACEMENT_3D('',#1524,#1212,#1213);
#1006=AXIS2_PLACEMENT_3D('',#1525,#1214,#1215);
#1007=AXIS2_PLACEMENT_3D('',#1527,#1216,#1217);
#1008=AXIS2_PLACEMENT_3D('',#1529,#1219,#1220);
#1009=AXIS2_PLACEMENT_3D('',#1530,#1221,#1222);
#1010=AXIS2_PLACEMENT_3D('',#1532,#1223,#1224);
#1011=AXIS2_PLACEMENT_3D('',#1533,#1225,#1226);
#1012=AXIS2_PLACEMENT_3D('',#1535,#1227,#1228);
#1013=AXIS2_PLACEMENT_3D('',#1537,#1230,#1231);
#1014=AXIS2_PLACEMENT_3D('',#1538,#1232,#1233);
#1015=AXIS2_PLACEMENT_3D('',#1540,#1234,#1235);
#1016=AXIS2_PLACEMENT_3D('',#1541,#1236,#1237);
#1017=AXIS2_PLACEMENT_3D('',#1543,#1238,#1239);
#1018=AXIS2_PLACEMENT_3D('',#1545,#1241,#1242);
#1019=AXIS2_PLACEMENT_3D('',#1546,#1243,#1244);
#1020=AXIS2_PLACEMENT_3D('',#1548,#1245,#1246);
#1021=AXIS2_PLACEMENT_3D('',#1549,#1247,#1248);
#1022=AXIS2_PLACEMENT_3D('',#1551,#1249,#1250);
#1023=AXIS2_PLACEMENT_3D('',#1553,#1252,#1253);
#1024=AXIS2_PLACEMENT_3D('',#1554,#1254,#1255);
#1025=AXIS2_PLACEMENT_3D('',#1556,#1256,#1257);
#1026=AXIS2_PLACEMENT_3D('',#1557,#1258,#1259);
#1027=AXIS2_PLACEMENT_3D('',#1559,#1260,#1261);
#1028=AXIS2_PLACEMENT_3D('',#1561,#1263,#1264);
#1029=AXIS2_PLACEMENT_3D('',#1562,#1265,#1266);
#1030=AXIS2_PLACEMENT_3D('',#1564,#1267,#1268);
#1031=AXIS2_PLACEMENT_3D('',#1565,#1269,#1270);
#1032=AXIS2_PLACEMENT_3D('',#1567,#1271,#1272);
#1033=AXIS2_PLACEMENT_3D('',#1569,#1274,#1275);
#1034=AXIS2_PLACEMENT_3D('',#1570,#1276,#1277);
#1035=AXIS2_PLACEMENT_3D('',#1572,#1278,#1279);
#1036=AXIS2_PLACEMENT_3D('',#1573,#1280,#1281);
#1037=AXIS2_PLACEMENT_3D('',#1575,#1282,#1283);
#1038=AXIS2_PLACEMENT_3D('',#1577,#1285,#1286);
#1039=AXIS2_PLACEMENT_3D('',#1578,#1287,#1288);
#1040=AXIS2_PLACEMENT_3D('',#1580,#1289,#1290);
#1041=AXIS2_PLACEMENT_3D('',#1583,#1292,#1293);
#1042=AXIS2_PLACEMENT_3D('',#1584,#1294,#1295);
#1043=AXIS2_PLACEMENT_3D('',#1585,#1296,#1297);
#1044=AXIS2_PLACEMENT_3D('',#1586,#1298,#1299);
#1045=AXIS2_PLACEMENT_3D('',#1588,#1300,#1301);
#1046=AXIS2_PLACEMENT_3D('',#1591,#1303,#1304);
#1047=AXIS2_PLACEMENT_3D('',#1592,#1305,#1306);
#1048=AXIS2_PLACEMENT_3D('',#1593,#1307,#1308);
#1049=AXIS2_PLACEMENT_3D('',#1594,#1309,#1310);
#1050=AXIS2_PLACEMENT_3D('',#1596,#1311,#1312);
#1051=AXIS2_PLACEMENT_3D('',#1599,#1314,#1315);
#1052=AXIS2_PLACEMENT_3D('',#1600,#1316,#1317);
#1053=AXIS2_PLACEMENT_3D('',#1601,#1318,#1319);
#1054=AXIS2_PLACEMENT_3D('',#1602,#1320,#1321);
#1055=AXIS2_PLACEMENT_3D('',#1604,#1322,#1323);
#1056=AXIS2_PLACEMENT_3D('',#1607,#1325,#1326);
#1057=AXIS2_PLACEMENT_3D('',#1608,#1327,#1328);
#1058=AXIS2_PLACEMENT_3D('',#1609,#1329,#1330);
#1059=AXIS2_PLACEMENT_3D('',#1610,#1331,#1332);
#1060=AXIS2_PLACEMENT_3D('',#1612,#1333,#1334);
#1061=AXIS2_PLACEMENT_3D('',#1615,#1336,#1337);
#1062=AXIS2_PLACEMENT_3D('',#1616,#1338,#1339);
#1063=AXIS2_PLACEMENT_3D('',#1617,#1340,#1341);
#1064=AXIS2_PLACEMENT_3D('',#1618,#1342,#1343);
#1065=AXIS2_PLACEMENT_3D('',#1620,#1344,#1345);
#1066=AXIS2_PLACEMENT_3D('',#1623,#1347,#1348);
#1067=AXIS2_PLACEMENT_3D('',#1624,#1349,#1350);
#1068=AXIS2_PLACEMENT_3D('',#1625,#1351,#1352);
#1069=AXIS2_PLACEMENT_3D('',#1626,#1353,#1354);
#1070=AXIS2_PLACEMENT_3D('',#1628,#1355,#1356);
#1071=AXIS2_PLACEMENT_3D('',#1631,#1358,#1359);
#1072=AXIS2_PLACEMENT_3D('',#1632,#1360,#1361);
#1073=AXIS2_PLACEMENT_3D('',#1633,#1362,#1363);
#1074=AXIS2_PLACEMENT_3D('',#1634,#1364,#1365);
#1075=AXIS2_PLACEMENT_3D('',#1636,#1366,#1367);
#1076=AXIS2_PLACEMENT_3D('',#1639,#1369,#1370);
#1077=AXIS2_PLACEMENT_3D('',#1640,#1371,#1372);
#1078=AXIS2_PLACEMENT_3D('',#1641,#1373,#1374);
#1079=AXIS2_PLACEMENT_3D('',#1642,#1375,#1376);
#1080=AXIS2_PLACEMENT_3D('',#1644,#1377,#1378);
#1081=AXIS2_PLACEMENT_3D('',#1647,#1380,#1381);
#1082=AXIS2_PLACEMENT_3D('',#1648,#1382,#1383);
#1083=AXIS2_PLACEMENT_3D('',#1649,#1384,#1385);
#1084=AXIS2_PLACEMENT_3D('',#1650,#1386,#1387);
#1085=AXIS2_PLACEMENT_3D('',#1652,#1388,#1389);
#1086=AXIS2_PLACEMENT_3D('',#1655,#1391,#1392);
#1087=AXIS2_PLACEMENT_3D('',#1656,#1393,#1394);
#1088=AXIS2_PLACEMENT_3D('',#1657,#1395,#1396);
#1089=AXIS2_PLACEMENT_3D('',#1658,#1397,#1398);
#1090=AXIS2_PLACEMENT_3D('',#1660,#1399,#1400);
#1091=AXIS2_PLACEMENT_3D('',#1663,#1402,#1403);
#1092=AXIS2_PLACEMENT_3D('',#1664,#1404,#1405);
#1093=AXIS2_PLACEMENT_3D('',#1665,#1406,#1407);
#1094=AXIS2_PLACEMENT_3D('',#1666,#1408,#1409);
#1095=AXIS2_PLACEMENT_3D('',#1668,#1410,#1411);
#1096=AXIS2_PLACEMENT_3D('',#1671,#1413,#1414);
#1097=AXIS2_PLACEMENT_3D('',#1672,#1415,#1416);
#1098=AXIS2_PLACEMENT_3D('',#1673,#1417,#1418);
#1099=DIRECTION('axis',(0.,0.,1.));
#1100=DIRECTION('refdir',(1.,0.,0.));
#1101=DIRECTION('center_axis',(1.,0.,0.));
#1102=DIRECTION('ref_axis',(0.,0.,-1.));
#1103=DIRECTION('',(0.,1.,0.));
#1104=DIRECTION('',(0.,0.,-1.));
#1105=DIRECTION('',(0.,-1.,0.));
#1106=DIRECTION('',(0.,0.,1.));
#1107=DIRECTION('center_axis',(0.,0.,1.));
#1108=DIRECTION('ref_axis',(1.,0.,0.));
#1109=DIRECTION('',(1.,0.,0.));
#1110=DIRECTION('',(0.,-1.,0.));
#1111=DIRECTION('',(-1.,0.,0.));
#1112=DIRECTION('',(0.,1.,0.));
#1113=DIRECTION('',(1.,0.,0.));
#1114=DIRECTION('',(0.,1.,0.));
#1115=DIRECTION('center_axis',(0.,0.,1.));
#1116=DIRECTION('ref_axis',(0.,-1.,0.));
#1117=DIRECTION('',(0.,1.,0.));
#1118=DIRECTION('',(1.,0.,0.));
#1119=DIRECTION('',(1.,0.,0.));
#1120=DIRECTION('center_axis',(0.,-1.,0.));
#1121=DIRECTION('ref_axis',(0.,0.,-1.));
#1122=DIRECTION('',(0.,0.,-1.));
#1123=DIRECTION('',(1.,0.,0.));
#1124=DIRECTION('',(0.,0.,1.));
#1125=DIRECTION('center_axis',(0.,1.,0.));
#1126=DIRECTION('ref_axis',(0.,0.,1.));
#1127=DIRECTION('',(1.90536907690694E-33,0.,1.));
#1128=DIRECTION('',(-1.,0.,0.));
#1129=DIRECTION('',(0.,0.,-1.));
#1130=DIRECTION('',(-1.,0.,0.));
#1131=DIRECTION('',(0.,0.,-1.));
#1132=DIRECTION('center_axis',(0.,0.,-1.));
#1133=DIRECTION('ref_axis',(-1.,0.,0.));
#1134=DIRECTION('',(0.,1.,0.));
#1135=DIRECTION('',(0.,1.,0.));
#1136=DIRECTION('',(-1.,0.,0.));
#1137=DIRECTION('',(0.,1.,0.));
#1138=DIRECTION('center_axis',(0.,0.,-1.));
#1139=DIRECTION('ref_axis',(0.,1.,0.));
#1140=DIRECTION('',(0.,-1.,0.));
#1141=DIRECTION('',(1.,0.,0.));
#1142=DIRECTION('center_axis',(0.,1.,0.));
#1143=DIRECTION('ref_axis',(0.,0.,1.));
#1144=DIRECTION('',(1.90536907690694E-33,0.,1.));
#1145=DIRECTION('',(0.,0.,-1.));
#1146=DIRECTION('center_axis',(-1.,0.,1.90536907690694E-33));
#1147=DIRECTION('ref_axis',(1.90536907690694E-33,0.,1.));
#1148=DIRECTION('center_axis',(1.,0.,0.));
#1149=DIRECTION('ref_axis',(0.,0.,-1.));
#1150=DIRECTION('',(0.,0.,1.));
#1151=DIRECTION('center_axis',(0.,-1.,0.));
#1152=DIRECTION('ref_axis',(0.,0.,-1.));
#1153=DIRECTION('center_axis',(1.,0.,0.));
#1154=DIRECTION('ref_axis',(0.,0.,-1.));
#1155=DIRECTION('center_axis',(0.,0.,1.));
#1156=DIRECTION('ref_axis',(1.,0.,0.));
#1157=DIRECTION('center_axis',(0.,0.,-1.));
#1158=DIRECTION('ref_axis',(1.,0.,0.));
#1159=DIRECTION('center_axis',(0.,0.,1.));
#1160=DIRECTION('ref_axis',(1.,0.,0.));
#1161=DIRECTION('center_axis',(0.,0.,1.));
#1162=DIRECTION('ref_axis',(1.,0.,0.));
#1163=DIRECTION('',(0.,0.,-1.));
#1164=DIRECTION('center_axis',(0.,0.,1.));
#1165=DIRECTION('ref_axis',(1.,0.,0.));
#1166=DIRECTION('center_axis',(0.,0.,1.));
#1167=DIRECTION('ref_axis',(1.,0.,0.));
#1168=DIRECTION('center_axis',(0.,0.,-1.));
#1169=DIRECTION('ref_axis',(1.,0.,0.));
#1170=DIRECTION('center_axis',(0.,0.,1.));
#1171=DIRECTION('ref_axis',(1.,0.,0.));
#1172=DIRECTION('center_axis',(0.,0.,1.));
#1173=DIRECTION('ref_axis',(1.,0.,0.));
#1174=DIRECTION('',(0.,0.,-1.));
#1175=DIRECTION('center_axis',(0.,0.,1.));
#1176=DIRECTION('ref_axis',(1.,0.,0.));
#1177=DIRECTION('center_axis',(0.,0.,1.));
#1178=DIRECTION('ref_axis',(1.,0.,0.));
#1179=DIRECTION('center_axis',(0.,0.,-1.));
#1180=DIRECTION('ref_axis',(1.,0.,0.));
#1181=DIRECTION('center_axis',(0.,0.,1.));
#1182=DIRECTION('ref_axis',(1.,0.,0.));
#1183=DIRECTION('center_axis',(0.,0.,1.));
#1184=DIRECTION('ref_axis',(1.,0.,0.));
#1185=DIRECTION('',(0.,0.,-1.));
#1186=DIRECTION('center_axis',(0.,0.,1.));
#1187=DIRECTION('ref_axis',(1.,0.,0.));
#1188=DIRECTION('center_axis',(0.,0.,1.));
#1189=DIRECTION('ref_axis',(1.,0.,0.));
#1190=DIRECTION('center_axis',(0.,0.,-1.));
#1191=DIRECTION('ref_axis',(1.,0.,0.));
#1192=DIRECTION('center_axis',(0.,0.,1.));
#1193=DIRECTION('ref_axis',(1.,0.,0.));
#1194=DIRECTION('center_axis',(0.,0.,1.));
#1195=DIRECTION('ref_axis',(1.,0.,0.));
#1196=DIRECTION('',(0.,0.,-1.));
#1197=DIRECTION('center_axis',(0.,0.,1.));
#1198=DIRECTION('ref_axis',(1.,0.,0.));
#1199=DIRECTION('center_axis',(0.,0.,1.));
#1200=DIRECTION('ref_axis',(1.,0.,0.));
#1201=DIRECTION('center_axis',(0.,0.,-1.));
#1202=DIRECTION('ref_axis',(1.,0.,0.));
#1203=DIRECTION('center_axis',(0.,0.,1.));
#1204=DIRECTION('ref_axis',(1.,0.,0.));
#1205=DIRECTION('center_axis',(0.,0.,1.));
#1206=DIRECTION('ref_axis',(1.,0.,0.));
#1207=DIRECTION('',(0.,0.,-1.));
#1208=DIRECTION('center_axis',(0.,0.,1.));
#1209=DIRECTION('ref_axis',(1.,0.,0.));
#1210=DIRECTION('center_axis',(0.,0.,1.));
#1211=DIRECTION('ref_axis',(1.,0.,0.));
#1212=DIRECTION('center_axis',(0.,0.,-1.));
#1213=DIRECTION('ref_axis',(1.,0.,0.));
#1214=DIRECTION('center_axis',(0.,0.,1.));
#1215=DIRECTION('ref_axis',(1.,0.,0.));
#1216=DIRECTION('center_axis',(0.,0.,1.));
#1217=DIRECTION('ref_axis',(1.,0.,0.));
#1218=DIRECTION('',(0.,0.,-1.));
#1219=DIRECTION('center_axis',(0.,0.,1.));
#1220=DIRECTION('ref_axis',(1.,0.,0.));
#1221=DIRECTION('center_axis',(0.,0.,1.));
#1222=DIRECTION('ref_axis',(1.,0.,0.));
#1223=DIRECTION('center_axis',(0.,0.,-1.));
#1224=DIRECTION('ref_axis',(1.,0.,0.));
#1225=DIRECTION('center_axis',(0.,0.,1.));
#1226=DIRECTION('ref_axis',(1.,0.,0.));
#1227=DIRECTION('center_axis',(0.,0.,1.));
#1228=DIRECTION('ref_axis',(1.,0.,0.));
#1229=DIRECTION('',(0.,0.,-1.));
#1230=DIRECTION('center_axis',(0.,0.,1.));
#1231=DIRECTION('ref_axis',(1.,0.,0.));
#1232=DIRECTION('center_axis',(0.,0.,1.));
#1233=DIRECTION('ref_axis',(1.,0.,0.));
#1234=DIRECTION('center_axis',(0.,0.,-1.));
#1235=DIRECTION('ref_axis',(1.,0.,0.));
#1236=DIRECTION('center_axis',(0.,0.,1.));
#1237=DIRECTION('ref_axis',(1.,0.,0.));
#1238=DIRECTION('center_axis',(0.,0.,1.));
#1239=DIRECTION('ref_axis',(1.,0.,0.));
#1240=DIRECTION('',(0.,0.,-1.));
#1241=DIRECTION('center_axis',(0.,0.,1.));
#1242=DIRECTION('ref_axis',(1.,0.,0.));
#1243=DIRECTION('center_axis',(0.,0.,1.));
#1244=DIRECTION('ref_axis',(1.,0.,0.));
#1245=DIRECTION('center_axis',(0.,0.,-1.));
#1246=DIRECTION('ref_axis',(1.,0.,0.));
#1247=DIRECTION('center_axis',(0.,0.,1.));
#1248=DIRECTION('ref_axis',(1.,0.,0.));
#1249=DIRECTION('center_axis',(0.,0.,1.));
#1250=DIRECTION('ref_axis',(1.,0.,0.));
#1251=DIRECTION('',(0.,0.,-1.));
#1252=DIRECTION('center_axis',(0.,0.,1.));
#1253=DIRECTION('ref_axis',(1.,0.,0.));
#1254=DIRECTION('center_axis',(0.,0.,1.));
#1255=DIRECTION('ref_axis',(1.,0.,0.));
#1256=DIRECTION('center_axis',(0.,0.,-1.));
#1257=DIRECTION('ref_axis',(1.,0.,0.));
#1258=DIRECTION('center_axis',(0.,0.,1.));
#1259=DIRECTION('ref_axis',(1.,0.,0.));
#1260=DIRECTION('center_axis',(0.,0.,1.));
#1261=DIRECTION('ref_axis',(1.,0.,0.));
#1262=DIRECTION('',(0.,0.,-1.));
#1263=DIRECTION('center_axis',(0.,0.,1.));
#1264=DIRECTION('ref_axis',(1.,0.,0.));
#1265=DIRECTION('center_axis',(0.,0.,1.));
#1266=DIRECTION('ref_axis',(1.,0.,0.));
#1267=DIRECTION('center_axis',(0.,0.,-1.));
#1268=DIRECTION('ref_axis',(1.,0.,0.));
#1269=DIRECTION('center_axis',(0.,0.,1.));
#1270=DIRECTION('ref_axis',(1.,0.,0.));
#1271=DIRECTION('center_axis',(0.,0.,1.));
#1272=DIRECTION('ref_axis',(1.,0.,0.));
#1273=DIRECTION('',(0.,0.,-1.));
#1274=DIRECTION('center_axis',(0.,0.,1.));
#1275=DIRECTION('ref_axis',(1.,0.,0.));
#1276=DIRECTION('center_axis',(0.,0.,1.));
#1277=DIRECTION('ref_axis',(1.,0.,0.));
#1278=DIRECTION('center_axis',(0.,0.,-1.));
#1279=DIRECTION('ref_axis',(1.,0.,0.));
#1280=DIRECTION('center_axis',(0.,0.,1.));
#1281=DIRECTION('ref_axis',(1.,0.,0.));
#1282=DIRECTION('center_axis',(0.,0.,1.));
#1283=DIRECTION('ref_axis',(1.,0.,0.));
#1284=DIRECTION('',(0.,0.,-1.));
#1285=DIRECTION('center_axis',(0.,0.,1.));
#1286=DIRECTION('ref_axis',(1.,0.,0.));
#1287=DIRECTION('center_axis',(0.,0.,-1.));
#1288=DIRECTION('ref_axis',(-1.,0.,0.));
#1289=DIRECTION('center_axis',(0.,0.,-1.));
#1290=DIRECTION('ref_axis',(-1.,0.,0.));
#1291=DIRECTION('',(0.,0.,1.));
#1292=DIRECTION('center_axis',(0.,0.,-1.));
#1293=DIRECTION('ref_axis',(-1.,0.,0.));
#1294=DIRECTION('center_axis',(0.,0.,-1.));
#1295=DIRECTION('ref_axis',(-1.,0.,0.));
#1296=DIRECTION('center_axis',(0.,0.,-1.));
#1297=DIRECTION('ref_axis',(-1.,0.,0.));
#1298=DIRECTION('center_axis',(0.,0.,-1.));
#1299=DIRECTION('ref_axis',(-1.,0.,0.));
#1300=DIRECTION('center_axis',(0.,0.,-1.));
#1301=DIRECTION('ref_axis',(-1.,0.,0.));
#1302=DIRECTION('',(0.,0.,1.));
#1303=DIRECTION('center_axis',(0.,0.,-1.));
#1304=DIRECTION('ref_axis',(-1.,0.,0.));
#1305=DIRECTION('center_axis',(0.,0.,-1.));
#1306=DIRECTION('ref_axis',(-1.,0.,0.));
#1307=DIRECTION('center_axis',(0.,0.,-1.));
#1308=DIRECTION('ref_axis',(-1.,0.,0.));
#1309=DIRECTION('center_axis',(0.,0.,-1.));
#1310=DIRECTION('ref_axis',(-1.,0.,0.));
#1311=DIRECTION('center_axis',(0.,0.,-1.));
#1312=DIRECTION('ref_axis',(-1.,0.,0.));
#1313=DIRECTION('',(0.,0.,1.));
#1314=DIRECTION('center_axis',(0.,0.,-1.));
#1315=DIRECTION('ref_axis',(-1.,0.,0.));
#1316=DIRECTION('center_axis',(0.,0.,-1.));
#1317=DIRECTION('ref_axis',(-1.,0.,0.));
#1318=DIRECTION('center_axis',(0.,0.,-1.));
#1319=DIRECTION('ref_axis',(-1.,0.,0.));
#1320=DIRECTION('center_axis',(0.,0.,-1.));
#1321=DIRECTION('ref_axis',(-1.,0.,0.));
#1322=DIRECTION('center_axis',(0.,0.,-1.));
#1323=DIRECTION('ref_axis',(-1.,0.,0.));
#1324=DIRECTION('',(0.,0.,1.));
#1325=DIRECTION('center_axis',(0.,0.,-1.));
#1326=DIRECTION('ref_axis',(-1.,0.,0.));
#1327=DIRECTION('center_axis',(0.,0.,-1.));
#1328=DIRECTION('ref_axis',(-1.,0.,0.));
#1329=DIRECTION('center_axis',(0.,0.,-1.));
#1330=DIRECTION('ref_axis',(-1.,0.,0.));
#1331=DIRECTION('center_axis',(0.,0.,-1.));
#1332=DIRECTION('ref_axis',(-1.,0.,0.));
#1333=DIRECTION('center_axis',(0.,0.,-1.));
#1334=DIRECTION('ref_axis',(-1.,0.,0.));
#1335=DIRECTION('',(0.,0.,1.));
#1336=DIRECTION('center_axis',(0.,0.,-1.));
#1337=DIRECTION('ref_axis',(-1.,0.,0.));
#1338=DIRECTION('center_axis',(0.,0.,-1.));
#1339=DIRECTION('ref_axis',(-1.,0.,0.));
#1340=DIRECTION('center_axis',(0.,0.,-1.));
#1341=DIRECTION('ref_axis',(-1.,0.,0.));
#1342=DIRECTION('center_axis',(0.,0.,-1.));
#1343=DIRECTION('ref_axis',(-1.,0.,0.));
#1344=DIRECTION('center_axis',(0.,0.,-1.));
#1345=DIRECTION('ref_axis',(-1.,0.,0.));
#1346=DIRECTION('',(0.,0.,1.));
#1347=DIRECTION('center_axis',(0.,0.,-1.));
#1348=DIRECTION('ref_axis',(-1.,0.,0.));
#1349=DIRECTION('center_axis',(0.,0.,-1.));
#1350=DIRECTION('ref_axis',(-1.,0.,0.));
#1351=DIRECTION('center_axis',(0.,0.,-1.));
#1352=DIRECTION('ref_axis',(-1.,0.,0.));
#1353=DIRECTION('center_axis',(0.,0.,-1.));
#1354=DIRECTION('ref_axis',(-1.,0.,0.));
#1355=DIRECTION('center_axis',(0.,0.,-1.));
#1356=DIRECTION('ref_axis',(-1.,0.,0.));
#1357=DIRECTION('',(0.,0.,1.));
#1358=DIRECTION('center_axis',(0.,0.,-1.));
#1359=DIRECTION('ref_axis',(-1.,0.,0.));
#1360=DIRECTION('center_axis',(0.,0.,-1.));
#1361=DIRECTION('ref_axis',(-1.,0.,0.));
#1362=DIRECTION('center_axis',(0.,0.,-1.));
#1363=DIRECTION('ref_axis',(-1.,0.,0.));
#1364=DIRECTION('center_axis',(0.,0.,-1.));
#1365=DIRECTION('ref_axis',(-1.,0.,0.));
#1366=DIRECTION('center_axis',(0.,0.,-1.));
#1367=DIRECTION('ref_axis',(-1.,0.,0.));
#1368=DIRECTION('',(0.,0.,1.));
#1369=DIRECTION('center_axis',(0.,0.,-1.));
#1370=DIRECTION('ref_axis',(-1.,0.,0.));
#1371=DIRECTION('center_axis',(0.,0.,-1.));
#1372=DIRECTION('ref_axis',(-1.,0.,0.));
#1373=DIRECTION('center_axis',(0.,0.,-1.));
#1374=DIRECTION('ref_axis',(-1.,0.,0.));
#1375=DIRECTION('center_axis',(0.,0.,-1.));
#1376=DIRECTION('ref_axis',(-1.,0.,0.));
#1377=DIRECTION('center_axis',(0.,0.,-1.));
#1378=DIRECTION('ref_axis',(-1.,0.,0.));
#1379=DIRECTION('',(0.,0.,1.));
#1380=DIRECTION('center_axis',(0.,0.,-1.));
#1381=DIRECTION('ref_axis',(-1.,0.,0.));
#1382=DIRECTION('center_axis',(0.,0.,-1.));
#1383=DIRECTION('ref_axis',(-1.,0.,0.));
#1384=DIRECTION('center_axis',(0.,0.,-1.));
#1385=DIRECTION('ref_axis',(-1.,0.,0.));
#1386=DIRECTION('center_axis',(0.,0.,-1.));
#1387=DIRECTION('ref_axis',(-1.,0.,0.));
#1388=DIRECTION('center_axis',(0.,0.,-1.));
#1389=DIRECTION('ref_axis',(-1.,0.,0.));
#1390=DIRECTION('',(0.,0.,1.));
#1391=DIRECTION('center_axis',(0.,0.,-1.));
#1392=DIRECTION('ref_axis',(-1.,0.,0.));
#1393=DIRECTION('center_axis',(0.,0.,-1.));
#1394=DIRECTION('ref_axis',(-1.,0.,0.));
#1395=DIRECTION('center_axis',(0.,0.,-1.));
#1396=DIRECTION('ref_axis',(-1.,0.,0.));
#1397=DIRECTION('center_axis',(0.,0.,-1.));
#1398=DIRECTION('ref_axis',(-1.,0.,0.));
#1399=DIRECTION('center_axis',(0.,0.,-1.));
#1400=DIRECTION('ref_axis',(-1.,0.,0.));
#1401=DIRECTION('',(0.,0.,1.));
#1402=DIRECTION('center_axis',(0.,0.,-1.));
#1403=DIRECTION('ref_axis',(-1.,0.,0.));
#1404=DIRECTION('center_axis',(0.,0.,-1.));
#1405=DIRECTION('ref_axis',(-1.,0.,0.));
#1406=DIRECTION('center_axis',(0.,0.,-1.));
#1407=DIRECTION('ref_axis',(-1.,0.,0.));
#1408=DIRECTION('center_axis',(0.,0.,-1.));
#1409=DIRECTION('ref_axis',(-1.,0.,0.));
#1410=DIRECTION('center_axis',(0.,0.,-1.));
#1411=DIRECTION('ref_axis',(-1.,0.,0.));
#1412=DIRECTION('',(0.,0.,1.));
#1413=DIRECTION('center_axis',(0.,0.,-1.));
#1414=DIRECTION('ref_axis',(-1.,0.,0.));
#1415=DIRECTION('center_axis',(0.,0.,-1.));
#1416=DIRECTION('ref_axis',(-1.,0.,0.));
#1417=DIRECTION('center_axis',(0.,0.,-1.));
#1418=DIRECTION('ref_axis',(-1.,0.,0.));
#1419=CARTESIAN_POINT('',(0.,0.,0.));
#1420=CARTESIAN_POINT('Origin',(450.7,246.0625,-258.7625));
#1421=CARTESIAN_POINT('',(450.7,53.975,-463.55));
#1422=CARTESIAN_POINT('',(450.7,438.15,-463.55));
#1423=CARTESIAN_POINT('',(450.7,425.45,-463.55));
#1424=CARTESIAN_POINT('',(450.7,53.975,-53.975));
#1425=CARTESIAN_POINT('',(450.7,53.975,-463.55));
#1426=CARTESIAN_POINT('',(450.7,438.15,-53.975));
#1427=CARTESIAN_POINT('',(450.7,53.975,-53.975));
#1428=CARTESIAN_POINT('',(450.7,438.15,-258.7625));
#1429=CARTESIAN_POINT('Origin',(0.,0.,0.));
#1430=CARTESIAN_POINT('',(0.,438.15,0.));
#1431=CARTESIAN_POINT('',(41.125,438.15,0.));
#1432=CARTESIAN_POINT('',(16.485,438.15,0.));
#1433=CARTESIAN_POINT('',(41.125,7.31,0.));
#1434=CARTESIAN_POINT('',(41.125,26.9875,0.));
#1435=CARTESIAN_POINT('',(635.,7.31,0.));
#1436=CARTESIAN_POINT('',(158.75,7.31,0.));
#1437=CARTESIAN_POINT('',(635.,581.985,0.));
#1438=CARTESIAN_POINT('',(635.,0.,0.));
#1439=CARTESIAN_POINT('',(0.,581.985,0.));
#1440=CARTESIAN_POINT('',(0.,581.985,0.));
#1441=CARTESIAN_POINT('',(0.,0.,0.));
#1442=CARTESIAN_POINT('Origin',(0.,438.15,-53.975));
#1443=CARTESIAN_POINT('',(41.125,53.975,-53.975));
#1444=CARTESIAN_POINT('',(41.125,438.15,-53.975));
#1445=CARTESIAN_POINT('',(41.125,246.0625,-53.975));
#1446=CARTESIAN_POINT('',(396.725,438.15,-53.975));
#1447=CARTESIAN_POINT('',(0.,53.975,-53.975));
#1448=CARTESIAN_POINT('Origin',(317.5,7.31,-258.7625));
#1449=CARTESIAN_POINT('',(41.125,7.31,-517.525));
#1450=CARTESIAN_POINT('',(41.125,7.31,-188.11875));
#1451=CARTESIAN_POINT('',(635.,7.31,-517.525));
#1452=CARTESIAN_POINT('',(476.25,7.31,-517.525));
#1453=CARTESIAN_POINT('',(635.,7.31,-129.38125));
#1454=CARTESIAN_POINT('Origin',(317.5,438.15,-258.7625));
#1455=CARTESIAN_POINT('',(0.,438.15,-517.525));
#1456=CARTESIAN_POINT('',(0.,438.15,-285.75));
#1457=CARTESIAN_POINT('',(41.125,438.15,-517.525));
#1458=CARTESIAN_POINT('',(476.25,438.15,-517.525));
#1459=CARTESIAN_POINT('',(41.125,438.15,-463.55));
#1460=CARTESIAN_POINT('',(41.125,438.15,-477.04375));
#1461=CARTESIAN_POINT('',(158.75,438.15,-463.55));
#1462=CARTESIAN_POINT('',(41.125,438.15,-13.49375));
#1463=CARTESIAN_POINT('Origin',(635.,0.,-517.525));
#1464=CARTESIAN_POINT('',(41.125,170.077338752112,-517.525));
#1465=CARTESIAN_POINT('',(-9.86076131526265E-31,581.985,-517.525));
#1466=CARTESIAN_POINT('',(-9.86076131526265E-31,0.,-517.525));
#1467=CARTESIAN_POINT('',(635.,581.985,-517.525));
#1468=CARTESIAN_POINT('',(635.,581.985,-517.525));
#1469=CARTESIAN_POINT('',(635.,0.,-517.525));
#1470=CARTESIAN_POINT('Origin',(0.,53.975,-463.55));
#1471=CARTESIAN_POINT('',(41.125,53.975,-463.55));
#1472=CARTESIAN_POINT('',(41.125,197.064838752112,-463.55));
#1473=CARTESIAN_POINT('',(0.,53.975,-463.55));
#1474=CARTESIAN_POINT('Origin',(317.5,581.985,-258.7625));
#1475=CARTESIAN_POINT('',(-9.86076131526265E-31,581.985,-517.525));
#1476=CARTESIAN_POINT('',(635.,581.985,0.));
#1477=CARTESIAN_POINT('Origin',(-9.86076131526265E-31,0.,-517.525));
#1478=CARTESIAN_POINT('Origin',(41.125,170.077338752112,-311.15));
#1479=CARTESIAN_POINT('',(41.125,53.975,-85.725));
#1480=CARTESIAN_POINT('Origin',(0.,53.975,-53.975));
#1481=CARTESIAN_POINT('Origin',(635.,0.,0.));
#1482=CARTESIAN_POINT('Origin',(218.622207952593,83.4024153852756,-473.55));
#1483=CARTESIAN_POINT('',(216.622207952593,83.4024153852756,-473.55));
#1484=CARTESIAN_POINT('Origin',(218.622207952593,83.4024153852756,-473.55));
#1485=CARTESIAN_POINT('Origin',(218.622207952593,83.4024153852756,-463.55));
#1486=CARTESIAN_POINT('',(216.622207952593,83.4024153852756,-453.55));
#1487=CARTESIAN_POINT('Origin',(218.622207952593,83.4024153852756,-453.55));
#1488=CARTESIAN_POINT('',(216.622207952593,83.4024153852756,-463.55));
#1489=CARTESIAN_POINT('Origin',(218.622207952593,83.4024153852756,-453.55));
#1490=CARTESIAN_POINT('Origin',(342.124949280103,220.891143463743,-473.55));
#1491=CARTESIAN_POINT('',(340.124949280103,220.891143463743,-473.55));
#1492=CARTESIAN_POINT('Origin',(342.124949280103,220.891143463743,-473.55));
#1493=CARTESIAN_POINT('Origin',(342.124949280103,220.891143463743,-463.55));
#1494=CARTESIAN_POINT('',(340.124949280103,220.891143463743,-453.55));
#1495=CARTESIAN_POINT('Origin',(342.124949280103,220.891143463743,-453.55));
#1496=CARTESIAN_POINT('',(340.124949280103,220.891143463743,-463.55));
#1497=CARTESIAN_POINT('Origin',(342.124949280103,220.891143463743,-453.55));
#1498=CARTESIAN_POINT('Origin',(218.62164669939,408.642938386608,-473.55));
#1499=CARTESIAN_POINT('',(216.62164669939,408.642938386608,-473.55));
#1500=CARTESIAN_POINT('Origin',(218.62164669939,408.642938386608,-473.55));
#1501=CARTESIAN_POINT('Origin',(218.62164669939,408.642938386608,-463.55));
#1502=CARTESIAN_POINT('',(216.62164669939,408.642938386608,-453.55));
#1503=CARTESIAN_POINT('Origin',(218.62164669939,408.642938386608,-453.55));
#1504=CARTESIAN_POINT('',(216.62164669939,408.642938386608,-463.55));
#1505=CARTESIAN_POINT('Origin',(218.62164669939,408.642938386608,-453.55));
#1506=CARTESIAN_POINT('Origin',(95.125,271.232853771884,-473.55));
#1507=CARTESIAN_POINT('',(93.125,271.232853771884,-473.55));
#1508=CARTESIAN_POINT('Origin',(95.125,271.232853771884,-473.55));
#1509=CARTESIAN_POINT('Origin',(95.125,271.232853771884,-463.55));
#1510=CARTESIAN_POINT('',(93.125,271.232853771884,-453.55));
#1511=CARTESIAN_POINT('Origin',(95.125,271.232853771884,-453.55));
#1512=CARTESIAN_POINT('',(93.125,271.232853771884,-463.55));
#1513=CARTESIAN_POINT('Origin',(95.125,271.232853771884,-453.55));
#1514=CARTESIAN_POINT('Origin',(218.624974640051,220.811998617814,-473.55));
#1515=CARTESIAN_POINT('',(216.624974640052,220.811998617814,-473.55));
#1516=CARTESIAN_POINT('Origin',(218.624974640051,220.811998617814,-473.55));
#1517=CARTESIAN_POINT('Origin',(218.624974640051,220.811998617814,-463.55));
#1518=CARTESIAN_POINT('',(216.624974640052,220.811998617814,-453.55));
#1519=CARTESIAN_POINT('Origin',(218.624974640051,220.811998617814,-453.55));
#1520=CARTESIAN_POINT('',(216.624974640052,220.811998617814,-463.55));
#1521=CARTESIAN_POINT('Origin',(218.624974640051,220.811998617814,-453.55));
#1522=CARTESIAN_POINT('Origin',(342.119415905186,82.5719769986674,-473.55));
#1523=CARTESIAN_POINT('',(340.119415905186,82.5719769986674,-473.55));
#1524=CARTESIAN_POINT('Origin',(342.119415905186,82.5719769986674,-473.55));
#1525=CARTESIAN_POINT('Origin',(342.119415905186,82.5719769986674,-463.55));
#1526=CARTESIAN_POINT('',(340.119415905186,82.5719769986674,-453.55));
#1527=CARTESIAN_POINT('Origin',(342.119415905186,82.5719769986674,-453.55));
#1528=CARTESIAN_POINT('',(340.119415905186,82.5719769986674,-463.55));
#1529=CARTESIAN_POINT('Origin',(342.119415905186,82.5719769986674,-453.55));
#1530=CARTESIAN_POINT('Origin',(95.125,84.2328537718839,-473.55));
#1531=CARTESIAN_POINT('',(93.125,84.2328537718839,-473.55));
#1532=CARTESIAN_POINT('Origin',(95.125,84.2328537718839,-473.55));
#1533=CARTESIAN_POINT('Origin',(95.125,84.2328537718839,-463.55));
#1534=CARTESIAN_POINT('',(93.125,84.2328537718839,-453.55));
#1535=CARTESIAN_POINT('Origin',(95.125,84.2328537718839,-453.55));
#1536=CARTESIAN_POINT('',(93.125,84.2328537718839,-463.55));
#1537=CARTESIAN_POINT('Origin',(95.125,84.2328537718839,-453.55));
#1538=CARTESIAN_POINT('Origin',(342.124949280103,271.391143463743,-473.55));
#1539=CARTESIAN_POINT('',(340.124949280103,271.391143463743,-473.55));
#1540=CARTESIAN_POINT('Origin',(342.124949280103,271.391143463743,-473.55));
#1541=CARTESIAN_POINT('Origin',(342.124949280103,271.391143463743,-463.55));
#1542=CARTESIAN_POINT('',(340.124949280103,271.391143463743,-453.55));
#1543=CARTESIAN_POINT('Origin',(342.124949280103,271.391143463743,-453.55));
#1544=CARTESIAN_POINT('',(340.124949280103,271.391143463743,-463.55));
#1545=CARTESIAN_POINT('Origin',(342.124949280103,271.391143463743,-453.55));
#1546=CARTESIAN_POINT('Origin',(342.118293398781,409.553023001333,-473.55));
#1547=CARTESIAN_POINT('',(340.118293398781,409.553023001333,-473.55));
#1548=CARTESIAN_POINT('Origin',(342.118293398781,409.553023001333,-473.55));
#1549=CARTESIAN_POINT('Origin',(342.118293398781,409.553023001333,-463.55));
#1550=CARTESIAN_POINT('',(340.118293398781,409.553023001333,-453.55));
#1551=CARTESIAN_POINT('Origin',(342.118293398781,409.553023001333,-453.55));
#1552=CARTESIAN_POINT('',(340.118293398781,409.553023001333,-463.55));
#1553=CARTESIAN_POINT('Origin',(342.118293398781,409.553023001333,-453.55));
#1554=CARTESIAN_POINT('Origin',(218.624974640052,271.311998617814,-473.55));
#1555=CARTESIAN_POINT('',(216.624974640052,271.311998617814,-473.55));
#1556=CARTESIAN_POINT('Origin',(218.624974640052,271.311998617814,-473.55));
#1557=CARTESIAN_POINT('Origin',(218.624974640052,271.311998617814,-463.55));
#1558=CARTESIAN_POINT('',(216.624974640052,271.311998617814,-453.55));
#1559=CARTESIAN_POINT('Origin',(218.624974640052,271.311998617814,-453.55));
#1560=CARTESIAN_POINT('',(216.624974640052,271.311998617814,-463.55));
#1561=CARTESIAN_POINT('Origin',(218.624974640052,271.311998617814,-453.55));
#1562=CARTESIAN_POINT('Origin',(95.125,220.732853771884,-473.55));
#1563=CARTESIAN_POINT('',(93.125,220.732853771884,-473.55));
#1564=CARTESIAN_POINT('Origin',(95.125,220.732853771884,-473.55));
#1565=CARTESIAN_POINT('Origin',(95.125,220.732853771884,-463.55));
#1566=CARTESIAN_POINT('',(93.125,220.732853771884,-453.55));
#1567=CARTESIAN_POINT('Origin',(95.125,220.732853771884,-453.55));
#1568=CARTESIAN_POINT('',(93.125,220.732853771884,-463.55));
#1569=CARTESIAN_POINT('Origin',(95.125,220.732853771884,-453.55));
#1570=CARTESIAN_POINT('Origin',(95.125,407.732853771884,-473.55));
#1571=CARTESIAN_POINT('',(93.125,407.732853771884,-473.55));
#1572=CARTESIAN_POINT('Origin',(95.125,407.732853771884,-473.55));
#1573=CARTESIAN_POINT('Origin',(95.125,407.732853771884,-463.55));
#1574=CARTESIAN_POINT('',(93.125,407.732853771884,-453.55));
#1575=CARTESIAN_POINT('Origin',(95.125,407.732853771884,-453.55));
#1576=CARTESIAN_POINT('',(93.125,407.732853771884,-463.55));
#1577=CARTESIAN_POINT('Origin',(95.125,407.732853771884,-453.55));
#1578=CARTESIAN_POINT('Origin',(95.125,83.6110922989767,-53.975));
#1579=CARTESIAN_POINT('',(97.125,83.6110922989767,-63.975));
#1580=CARTESIAN_POINT('Origin',(95.125,83.6110922989767,-63.975));
#1581=CARTESIAN_POINT('',(97.125,83.6110922989767,-53.975));
#1582=CARTESIAN_POINT('',(97.125,83.6110922989767,-53.975));
#1583=CARTESIAN_POINT('Origin',(95.125,83.6110922989767,-53.975));
#1584=CARTESIAN_POINT('Origin',(95.125,83.6110922989767,-63.975));
#1585=CARTESIAN_POINT('Origin',(95.125,83.6110922989767,-53.975));
#1586=CARTESIAN_POINT('Origin',(342.124873393663,271.461007412207,-53.975));
#1587=CARTESIAN_POINT('',(344.124873393663,271.461007412207,-63.975));
#1588=CARTESIAN_POINT('Origin',(342.124873393663,271.461007412207,-63.975));
#1589=CARTESIAN_POINT('',(344.124873393663,271.461007412207,-53.975));
#1590=CARTESIAN_POINT('',(344.124873393663,271.461007412207,-53.975));
#1591=CARTESIAN_POINT('Origin',(342.124873393663,271.461007412207,-53.975));
#1592=CARTESIAN_POINT('Origin',(342.124873393663,271.461007412207,-63.975));
#1593=CARTESIAN_POINT('Origin',(342.124873393663,271.461007412207,-53.975));
#1594=CARTESIAN_POINT('Origin',(218.625,408.513907701023,-53.975));
#1595=CARTESIAN_POINT('',(220.625,408.513907701023,-63.975));
#1596=CARTESIAN_POINT('Origin',(218.625,408.513907701023,-63.975));
#1597=CARTESIAN_POINT('',(220.625,408.513907701023,-53.975));
#1598=CARTESIAN_POINT('',(220.625,408.513907701023,-53.975));
#1599=CARTESIAN_POINT('Origin',(218.625,408.513907701023,-53.975));
#1600=CARTESIAN_POINT('Origin',(218.625,408.513907701023,-63.975));
#1601=CARTESIAN_POINT('Origin',(218.625,408.513907701023,-53.975));
#1602=CARTESIAN_POINT('Origin',(95.125,408.513907701023,-53.975));
#1603=CARTESIAN_POINT('',(97.125,408.513907701023,-63.975));
#1604=CARTESIAN_POINT('Origin',(95.125,408.513907701023,-63.975));
#1605=CARTESIAN_POINT('',(97.125,408.513907701023,-53.975));
#1606=CARTESIAN_POINT('',(97.125,408.513907701023,-53.975));
#1607=CARTESIAN_POINT('Origin',(95.125,408.513907701023,-53.975));
#1608=CARTESIAN_POINT('Origin',(95.125,408.513907701023,-63.975));
#1609=CARTESIAN_POINT('Origin',(95.125,408.513907701023,-53.975));
#1610=CARTESIAN_POINT('Origin',(218.625,220.78416903043,-53.975));
#1611=CARTESIAN_POINT('',(220.625,220.78416903043,-63.975));
#1612=CARTESIAN_POINT('Origin',(218.625,220.78416903043,-63.975));
#1613=CARTESIAN_POINT('',(220.625,220.78416903043,-53.975));
#1614=CARTESIAN_POINT('',(220.625,220.78416903043,-53.975));
#1615=CARTESIAN_POINT('Origin',(218.625,220.78416903043,-53.975));
#1616=CARTESIAN_POINT('Origin',(218.625,220.78416903043,-63.975));
#1617=CARTESIAN_POINT('Origin',(218.625,220.78416903043,-53.975));
#1618=CARTESIAN_POINT('Origin',(218.625,83.6110922989766,-53.975));
#1619=CARTESIAN_POINT('',(220.625,83.6110922989766,-63.975));
#1620=CARTESIAN_POINT('Origin',(218.625,83.6110922989766,-63.975));
#1621=CARTESIAN_POINT('',(220.625,83.6110922989766,-53.975));
#1622=CARTESIAN_POINT('',(220.625,83.6110922989766,-53.975));
#1623=CARTESIAN_POINT('Origin',(218.625,83.6110922989766,-53.975));
#1624=CARTESIAN_POINT('Origin',(218.625,83.6110922989766,-63.975));
#1625=CARTESIAN_POINT('Origin',(218.625,83.6110922989766,-53.975));
#1626=CARTESIAN_POINT('Origin',(95.1250000000001,220.78416903043,-53.975));
#1627=CARTESIAN_POINT('',(97.1250000000001,220.78416903043,-63.975));
#1628=CARTESIAN_POINT('Origin',(95.1250000000001,220.78416903043,-63.975));
#1629=CARTESIAN_POINT('',(97.1250000000001,220.78416903043,-53.975));
#1630=CARTESIAN_POINT('',(97.1250000000001,220.78416903043,-53.975));
#1631=CARTESIAN_POINT('Origin',(95.1250000000001,220.78416903043,-53.975));
#1632=CARTESIAN_POINT('Origin',(95.1250000000001,220.78416903043,-63.975));
#1633=CARTESIAN_POINT('Origin',(95.1250000000001,220.78416903043,-53.975));
#1634=CARTESIAN_POINT('Origin',(95.125,271.107330829622,-53.975));
#1635=CARTESIAN_POINT('',(97.125,271.107330829622,-63.975));
#1636=CARTESIAN_POINT('Origin',(95.125,271.107330829622,-63.975));
#1637=CARTESIAN_POINT('',(97.125,271.107330829622,-53.975));
#1638=CARTESIAN_POINT('',(97.125,271.107330829622,-53.975));
#1639=CARTESIAN_POINT('Origin',(95.125,271.107330829622,-53.975));
#1640=CARTESIAN_POINT('Origin',(95.125,271.107330829622,-63.975));
#1641=CARTESIAN_POINT('Origin',(95.125,271.107330829622,-53.975));
#1642=CARTESIAN_POINT('Origin',(342.125,408.513907701023,-53.975));
#1643=CARTESIAN_POINT('',(344.125,408.513907701023,-63.975));
#1644=CARTESIAN_POINT('Origin',(342.125,408.513907701023,-63.975));
#1645=CARTESIAN_POINT('',(344.125,408.513907701023,-53.975));
#1646=CARTESIAN_POINT('',(344.125,408.513907701023,-53.975));
#1647=CARTESIAN_POINT('Origin',(342.125,408.513907701023,-53.975));
#1648=CARTESIAN_POINT('Origin',(342.125,408.513907701023,-63.975));
#1649=CARTESIAN_POINT('Origin',(342.125,408.513907701023,-53.975));
#1650=CARTESIAN_POINT('Origin',(218.624873393663,271.284169030271,-53.975));
#1651=CARTESIAN_POINT('',(220.624873393663,271.284169030271,-63.975));
#1652=CARTESIAN_POINT('Origin',(218.624873393663,271.284169030271,-63.975));
#1653=CARTESIAN_POINT('',(220.624873393663,271.284169030271,-53.975));
#1654=CARTESIAN_POINT('',(220.624873393663,271.284169030271,-53.975));
#1655=CARTESIAN_POINT('Origin',(218.624873393663,271.284169030271,-53.975));
#1656=CARTESIAN_POINT('Origin',(218.624873393663,271.284169030271,-63.975));
#1657=CARTESIAN_POINT('Origin',(218.624873393663,271.284169030271,-53.975));
#1658=CARTESIAN_POINT('Origin',(342.125,220.78416903043,-53.975));
#1659=CARTESIAN_POINT('',(344.125,220.78416903043,-63.975));
#1660=CARTESIAN_POINT('Origin',(342.125,220.78416903043,-63.975));
#1661=CARTESIAN_POINT('',(344.125,220.78416903043,-53.975));
#1662=CARTESIAN_POINT('',(344.125,220.78416903043,-53.975));
#1663=CARTESIAN_POINT('Origin',(342.125,220.78416903043,-53.975));
#1664=CARTESIAN_POINT('Origin',(342.125,220.78416903043,-63.975));
#1665=CARTESIAN_POINT('Origin',(342.125,220.78416903043,-53.975));
#1666=CARTESIAN_POINT('Origin',(342.125,83.6110922989766,-53.975));
#1667=CARTESIAN_POINT('',(344.125,83.6110922989766,-63.975));
#1668=CARTESIAN_POINT('Origin',(342.125,83.6110922989766,-63.975));
#1669=CARTESIAN_POINT('',(344.125,83.6110922989766,-53.975));
#1670=CARTESIAN_POINT('',(344.125,83.6110922989766,-53.975));
#1671=CARTESIAN_POINT('Origin',(342.125,83.6110922989766,-53.975));
#1672=CARTESIAN_POINT('Origin',(342.125,83.6110922989766,-63.975));
#1673=CARTESIAN_POINT('Origin',(342.125,83.6110922989766,-53.975));
#1674=UNCERTAINTY_MEASURE_WITH_UNIT(LENGTH_MEASURE(0.01),#1678,
'DISTANCE_ACCURACY_VALUE',
'Maximum model space distance between geometric entities at asserted c
onnectivities');
#1675=UNCERTAINTY_MEASURE_WITH_UNIT(LENGTH_MEASURE(0.01),#1678,
'DISTANCE_ACCURACY_VALUE',
'Maximum model space distance between geometric entities at asserted c
onnectivities');
#1676=(
GEOMETRIC_REPRESENTATION_CONTEXT(3)
GLOBAL_UNCERTAINTY_ASSIGNED_CONTEXT((#1674))
GLOBAL_UNIT_ASSIGNED_CONTEXT((#1678,#1680,#1681))
REPRESENTATION_CONTEXT('','3D')
);
#1677=(
GEOMETRIC_REPRESENTATION_CONTEXT(3)
GLOBAL_UNCERTAINTY_ASSIGNED_CONTEXT((#1675))
GLOBAL_UNIT_ASSIGNED_CONTEXT((#1678,#1680,#1681))
REPRESENTATION_CONTEXT('','3D')
);
#1678=(
LENGTH_UNIT()
NAMED_UNIT(*)
SI_UNIT(.MILLI.,.METRE.)
);
#1679=(
LENGTH_UNIT()
NAMED_UNIT(*)
SI_UNIT($,.METRE.)
);
#1680=(
NAMED_UNIT(*)
PLANE_ANGLE_UNIT()
SI_UNIT($,.RADIAN.)
);
#1681=(
NAMED_UNIT(*)
SI_UNIT($,.STERADIAN.)
SOLID_ANGLE_UNIT()
);
#1682=SHAPE_DEFINITION_REPRESENTATION(#1683,#1684);
#1683=PRODUCT_DEFINITION_SHAPE('',$,#1686);
#1684=SHAPE_REPRESENTATION('',(#966),#1676);
#1685=PRODUCT_DEFINITION_CONTEXT('part definition',#1690,'design');
#1686=PRODUCT_DEFINITION('[updated] Medium IncuFridge 365P',
'[updated] Medium IncuFridge 365P v11',#1687,#1685);
#1687=PRODUCT_DEFINITION_FORMATION('',$,#1692);
#1688=PRODUCT_RELATED_PRODUCT_CATEGORY(
'[updated] Medium IncuFridge 365P v11',
'[updated] Medium IncuFridge 365P v11',(#1692));
#1689=APPLICATION_PROTOCOL_DEFINITION('international standard',
'ap242_managed_model_based_3d_engineering',2011,#1690);
#1690=APPLICATION_CONTEXT('Managed model based 3d engineering');
#1691=PRODUCT_CONTEXT('part definition',#1690,'mechanical');
#1692=PRODUCT('[updated] Medium IncuFridge 365P',
'[updated] Medium IncuFridge 365P v11',$,(#1691));
#1693=PRESENTATION_STYLE_ASSIGNMENT((#1694));
#1694=SURFACE_STYLE_USAGE(.BOTH.,#1695);
#1695=SURFACE_SIDE_STYLE('',(#1696));
#1696=SURFACE_STYLE_FILL_AREA(#1697);
#1697=FILL_AREA_STYLE('Steel - Satin',(#1698));
#1698=FILL_AREA_STYLE_COLOUR('Steel - Satin',#1699);
#1699=COLOUR_RGB('Steel - Satin',0.627450980392157,0.627450980392157,0.627450980392157);
ENDSEC;
END-ISO-10303-21;
